<svg width="297mm" height="210mm" version="1.1" viewBox="0 0 297 210" xmlns="http://www.w3.org/2000/svg" xmlns:osb="http://www.openswatchbook.org/uri/2009/osb" xmlns:xlink="http://www.w3.org/1999/xlink"><defs><linearGradient id="linearGradient2440" x1="240.6" x2="39.114" y1="26.984" y2="334.77" gradientTransform="matrix(3.7795 0 0 3.7795 0 -328.82)" gradientUnits="userSpaceOnUse"><stop offset="0"/><stop stop-opacity=".98431" offset=".13312"/><stop stop-color="#313131" stop-opacity=".97647" offset=".18901"/><stop stop-color="#626262" stop-opacity=".97647" offset=".20846"/><stop stop-color="#393939" stop-opacity=".98039" offset=".22491"/><stop stop-color="#1c1c1c" offset=".31539"/><stop offset=".39381"/><stop stop-color="#232323" offset=".42277"/><stop stop-color="#575757" offset=".42839"/><stop stop-color="#5e5e5e" offset=".43756"/><stop stop-color="#373737" stop-opacity=".98824" offset=".44387"/><stop stop-color="#1f1f1f" stop-opacity=".97647" offset=".53278"/><stop offset=".60085"/><stop offset=".66178"/><stop stop-color="#080808" stop-opacity=".98824" offset=".70792"/><stop stop-color="#080808" offset=".74397"/><stop stop-color="#353535" offset=".75408"/><stop offset=".76096"/><stop stop-color="#232323" offset=".78497"/><stop stop-color="#353535" offset=".81963"/><stop stop-color="#6f6f6f" offset=".83195"/><stop stop-color="#595959" offset=".84647"/><stop stop-color="#3a3a3a" offset=".87486"/><stop offset=".93803"/><stop offset="1"/></linearGradient><linearGradient id="linearGradient2492" x1="265.7" x2="72.945" y1="46.301" y2="339.36" gradientUnits="userSpaceOnUse"><stop offset="0"/><stop offset=".13508"/><stop stop-color="#8c0000" offset=".1827"/><stop stop-color="#be0202" offset=".20066"/><stop stop-color="#ff6060" offset=".20997"/><stop stop-color="#d21212" offset=".24496"/><stop stop-color="#a80000" offset=".30777"/><stop stop-color="#090000" offset=".40505"/><stop stop-color="#970000" offset=".43222"/><stop stop-color="#ea5555" offset=".44007"/><stop stop-color="#f55" offset=".45241"/><stop stop-color="#f10000" offset=".46152"/><stop stop-color="#e60000" offset=".48349"/><stop stop-color="#960000" offset=".54111"/><stop stop-color="#730000" offset=".56947"/><stop stop-color="#540000" offset=".59242"/><stop stop-color="#300" offset=".61947"/><stop offset=".68035"/><stop stop-color="#060000" offset=".73104"/><stop stop-color="#0d0000" offset=".7387"/><stop stop-color="#370000" offset=".76204"/><stop stop-color="#410000" offset=".77215"/><stop stop-color="#a20000" offset=".78313"/><stop stop-color="#060000" offset=".78966"/><stop stop-color="#5e0000" offset=".81189"/><stop stop-color="#761b1b" offset=".85147"/><stop stop-color="#ff4646" offset=".86408"/><stop stop-color="#ff0c0c" offset=".87301"/><stop stop-color="#1d0000" offset=".97664"/><stop stop-color="#2f0000" offset="1"/></linearGradient><linearGradient id="linearGradient891" x1="140.21" x2="-39.158" y1="-9.1666" y2="255.2" gradientUnits="userSpaceOnUse"><stop stop-color="#818181" offset="0"/><stop stop-color="#252525" offset=".076766"/><stop stop-color="#656565" stop-opacity=".94118" offset=".14446"/><stop stop-color="#9d9d9d" stop-opacity=".92157" offset=".15597"/><stop stop-color="#929292" stop-opacity=".92157" offset=".16397"/><stop stop-color="#808080" stop-opacity=".92549" offset=".18293"/><stop stop-color="#535353" stop-opacity=".93333" offset=".25647"/><stop stop-color="#2f2f2f" stop-opacity=".98431" offset=".3097"/><stop stop-color="#050505" stop-opacity=".99608" offset=".36377"/><stop stop-color="#090909" offset=".37379"/><stop stop-color="#373737" offset=".38633"/><stop stop-color="#646464" offset=".40481"/><stop stop-color="#989898" offset=".41204"/><stop stop-color="#aeaeae" offset=".42466"/><stop stop-color="#a3a3a3" offset=".42913"/><stop stop-color="#959595" offset=".44007"/><stop stop-color="#6a6a6a" offset=".49274"/><stop stop-color="#3c3c3c" offset=".56562"/><stop stop-color="#2d2d2d" stop-opacity=".98431" offset=".58557"/><stop stop-opacity=".99216" offset=".66786"/><stop stop-opacity=".9979" offset=".69082"/><stop stop-color="#030303" stop-opacity=".97647" offset=".73316"/><stop stop-color="#646464" offset=".77154"/><stop stop-color="#818181" stop-opacity="0" offset="1"/></linearGradient><linearGradient id="linearGradient947" x1="125.25" x2="-68.894" y1="-45.286" y2="241.29" gradientUnits="userSpaceOnUse"><stop stop-color="#240000" offset="0"/><stop offset=".13508"/><stop stop-color="#f22" offset=".21557"/><stop stop-color="#a80000" offset=".3257"/><stop stop-color="#2b0000" offset=".3816"/><stop stop-color="#040000" offset=".40648"/><stop stop-color="#ac0000" offset=".43497"/><stop stop-color="#e65a5a" offset=".44346"/><stop stop-color="#f55" offset=".45464"/><stop stop-color="#f00000" offset=".46077"/><stop stop-color="#e60000" offset=".48349"/><stop stop-color="#960000" offset=".54111"/><stop stop-color="#730000" offset=".56947"/><stop stop-color="#4b0000" offset=".60461"/><stop stop-color="#300" offset=".65965"/><stop stop-color="#720000" offset=".73104"/><stop stop-color="#370000" offset=".76204"/><stop stop-color="#410000" offset=".77215"/><stop stop-color="#a20000" offset=".78313"/><stop stop-color="#4b0000" offset=".78966"/><stop stop-color="#5e0000" offset=".81189"/><stop stop-color="#ff1313" offset=".86408"/><stop stop-color="#1d0000" offset=".97664"/><stop stop-color="#2f0000" offset="1"/></linearGradient><linearGradient id="linearGradient956" x1="388.77" x2="186.16" y1="120.95" y2="426.66" gradientUnits="userSpaceOnUse"><stop stop-color="#240000" offset="0"/><stop offset=".14445"/><stop stop-color="#c10000" offset=".19405"/><stop stop-color="#f44" offset=".21557"/><stop stop-color="#d21212" offset=".23668"/><stop stop-color="#850000" offset=".30892"/><stop stop-color="#200" offset=".40505"/><stop stop-color="#ac0000" offset=".4299"/><stop stop-color="#dc4a4a" offset=".4379"/><stop stop-color="#ff4343" offset=".44852"/><stop stop-color="#f10000" offset=".46341"/><stop stop-color="#e60000" offset=".4709"/><stop stop-color="#960000" offset=".54111"/><stop stop-color="#640000" offset=".57708"/><stop stop-color="#4b0000" offset=".60461"/><stop stop-color="#300" offset=".65965"/><stop stop-color="#200" offset=".73104"/><stop stop-color="#370000" offset=".76204"/><stop stop-color="#410000" offset=".77215"/><stop stop-color="#a20000" offset=".78313"/><stop stop-color="#4b0000" offset=".78966"/><stop stop-color="#5e0000" offset=".81189"/><stop stop-color="#ff1313" offset=".86408"/><stop stop-color="#1d0000" offset=".97664"/><stop stop-color="#2f0000" offset="1"/></linearGradient><linearGradient id="linearGradient1039" x1="231.23" x2="39.114" y1="43.683" y2="334.77" gradientTransform="matrix(3.7795 0 0 3.7795 0 -328.82)" gradientUnits="userSpaceOnUse"><stop offset="0"/><stop stop-opacity=".98431" offset=".099245"/><stop stop-color="#242424" stop-opacity=".97647" offset=".14206"/><stop stop-color="#292929" stop-opacity=".97647" offset=".15454"/><stop stop-color="#626262" stop-opacity=".97647" offset=".16275"/><stop stop-color="#393939" stop-opacity=".98039" offset=".17315"/><stop stop-color="#1d1d1d" stop-opacity=".98824" offset=".22859"/><stop stop-color="#131313" offset=".28293"/><stop offset=".36135"/><stop stop-color="#232323" offset=".38815"/><stop stop-color="#575757" offset=".3948"/><stop stop-color="#5e5e5e" offset=".40676"/><stop stop-color="#373737" stop-opacity=".98824" offset=".41147"/><stop stop-color="#1e1e1e" stop-opacity=".98039" offset=".46544"/><stop stop-color="#111" stop-opacity=".97647" offset=".53278"/><stop offset=".60085"/><stop offset=".66178"/><stop stop-color="#080808" stop-opacity=".98824" offset=".70792"/><stop stop-color="#080808" offset=".72822"/><stop stop-color="#353535" offset=".73951"/><stop offset=".74872"/><stop stop-color="#232323" offset=".77273"/><stop stop-color="#353535" offset=".81031"/><stop stop-color="#6f6f6f" offset=".82138"/><stop stop-color="#595959" offset=".83714"/><stop stop-color="#3a3a3a" offset=".87486"/><stop offset=".93803"/><stop offset="1"/></linearGradient></defs><g transform="translate(0,-87)"><g><rect x="-.52917" y="86.921" width="298.75" height="210.84" fill="url(#linearGradient891)"/><path d="m-0.52917 297.76-1e-8 -116.11s43.392 24.871 54.504 13.758 2.1459-44.96 24.807-62.976c16.541-13.151 32.967-18.946 51.955-7.2024 10.741 6.6429 21.993 14.024 27.836 18.436 3.6815 2.7794 1.7535 2.9184 16.053-12.816 20.386-22.431 37.042-43.921 37.042-43.921l86.557 0.02555v210.81c-99.58-0.0106-198.12 7e-3 -298.75 1.5e-4z" fill="url(#linearGradient2492)"/><path transform="matrix(.26458 0 0 .26458 0 87)" d="m1043.2 1.4199c-24.084 1.2207-47.527 2.2701-76.932 1.2335-26.466-0.933-51.578 16.983-75.285 33.433-98.995 68.69-134.44 293.89-201.11 247.43-66.67-46.467-215.07 17.233-239.31 104.11-24.244 86.873 16.164 88.895 72.732 149.5 56.569 60.609-18.183 197.99-131.32 117.18-38.94-27.814-87.477-68.466-110.37-75.449-72.112-21.991-63.152 5.4841-63.152 5.4841-38.108 7.2481-92.725-84.278-166.29-10.645-47.388 47.432-51.955 222.81-52.125 222.87 0 0 135.76-49.528 199.4-65.084 13.207-3.2283 31.778-1.2188 49.59-6.3682 51.832 4.4379 130.68 0.39938 184.81 1.5468 7.7942 0.16523 0.25052-6.6698 8.8282-6.1486 10.388 0.63118 36.666 8.5866 42.448 8.1419 55.154-4.2427 71.645 27.102 99.93 5.8887 15.082-11.311 135.3-77.205 112.22-145.72-18.067-53.64-26.397-166.45 80.134-183.55 19.172-3.0779 68.531-15.211 61.688-75.551-8.3977-74.056 65.07-155.77 77.361-179.47 19.799-38.184 210.73-147.96 210.73-147.96s-37.358-3.2141-83.971-0.85156zm83.971 0.85156c-42.69 44.602-71.535 76.921-101.99 118.21-32.48 44.025-58.138 127.2-85.779 137.52-16.952 6.3309-23.774 16.822-26.142 30.544-5.3443 30.97 12.001 78.397-13.199 131.6-69.444-19.128-110.8 38.054-115.39 68.802-6.7235 45.099 22.327 129.37 13.34 193.81-10.266 73.614-170.21 80.06-290.46 78.833-7.7212-0.0788-0.31471 7.3809-7.7904 7.188-77.248-1.9938-182.14-0.95887-182.14-0.95887-61.962 25.268-92.196 25.98-169.9 28.744h979.45zm-979.45 794.29h-147.69c50.161-0.58243 100.11-0.85086 147.69 0z" fill="url(#linearGradient2440)"/><path d="m-0.52917 86.921 0.26458 52.123s30.824 14.949 31.353-9.9219c0.52917-24.871 22.415-32.09 39.555-35.322 13.644-2.5725 22.74 3.4933 28.989 6.8508 0 0 1.1784-2.0749 9.5759-2.613 12.633-0.80944 21.495-11.117 21.495-11.117z" fill="url(#linearGradient947)"/><path d="m231.62 297.78s11.6-32.959 5.2385-47.177c-6.361-14.219-5.2385-28.812-0.74836-31.805s16.658-11.852 26.013-3.2457c9.3544 8.6061-8.9803-19.457 1.4967-50.14s11.779-35.669 20.759-35.669 7.4835 5.2385 8.9802 0c1.4967-5.2385 2.6192-16.464 4.4901-16.464 0.0513 0 0.38322 0.40102 0.38322 0.40102l-5e-3 184.08z" fill="url(#linearGradient956)"/></g><path d="m299.24 254.4-256.38-168.8-2.9104 2.6458 258.76 170.13" display="none" fill="none" stroke="#000" stroke-width=".26458px"/><path transform="matrix(.26458 0 0 .26458 0 87)" d="m1043.2 1.4199c-24.084 1.2207-47.527 2.2701-76.932 1.2335-26.466-0.933-51.578 16.983-75.285 33.433-98.995 68.69-134.44 293.89-201.11 247.43-66.67-46.467-215.07 17.233-239.31 104.11-24.244 86.873 16.164 88.895 72.732 149.5 56.569 60.609-18.183 197.99-131.32 117.18-38.94-27.814-87.477-68.466-110.37-75.449-72.112-21.991-63.152 5.4841-63.152 5.4841-38.108 7.2481-92.725-84.278-166.29-10.645-47.388 47.432-53.955 222.81-54.125 222.87 0 0 137.76-49.528 201.4-65.084 13.207-3.2283 31.778-1.2188 49.59-6.3682 51.832 4.4379 130.68 0.39938 184.81 1.5468 7.7942 0.16523 0.25052-6.6698 8.8282-6.1486 10.388 0.63118 36.666 8.5866 42.448 8.1419 55.154-4.2427 71.645 27.102 99.93 5.8887 15.082-11.311 135.3-77.205 112.22-145.72-18.067-53.64-26.397-166.45 80.134-183.55 19.172-3.0779 68.531-15.211 61.688-75.551-8.3977-74.056 65.07-155.77 77.361-179.47 19.799-38.184 210.73-147.96 210.73-147.96s-37.358-3.2141-83.971-0.85156zm83.971 0.85156c-42.69 44.602-71.535 76.921-101.99 118.21-32.48 44.025-58.138 127.2-85.779 137.52-16.952 6.3309-23.774 16.822-26.142 30.544-5.3443 30.97 12.001 78.397-13.199 131.6-69.444-19.128-110.8 38.054-115.39 68.802-6.7235 45.099 22.327 129.37 13.34 193.81-10.266 73.614-170.21 80.06-290.46 78.833-7.7212-0.0788-0.31471 7.3809-7.7904 7.188-77.248-1.9938-182.14-0.95887-182.14-0.95887-61.962 25.268-241.89 25.98-319.59 28.744l1129.1 8e-5zm-1129.1 794.29c1.3333-1.9051 0.66667-0.95257 0 0z" fill="url(#linearGradient1039)"/><g fill="#fff" fill-opacity=".30787"><path d="m48.544 86.342 260.87 172.2 1.2989 9.1153-273.58-181.01z"/><path d="m188.23 83.714 109.99 73.659 0.54765 3.8992-115.35-77.431z"/><path d="m96.968 299.36-97.534-63.714-0.48565-3.3727 102.29 66.976z"/></g></g></svg>
