<?xml version="1.0" encoding="UTF-8" standalone="no"?>
<svg
   xmlns:dc="http://purl.org/dc/elements/1.1/"
   xmlns:cc="http://creativecommons.org/ns#"
   xmlns:rdf="http://www.w3.org/1999/02/22-rdf-syntax-ns#"
   xmlns:svg="http://www.w3.org/2000/svg"
   xmlns="http://www.w3.org/2000/svg"
   xmlns:sodipodi="http://sodipodi.sourceforge.net/DTD/sodipodi-0.dtd"
   xmlns:inkscape="http://www.inkscape.org/namespaces/inkscape"
   width="170.97385mm"
   height="93.524612mm"
   viewBox="0 0 170.97385 93.524613"
   version="1.1"
   id="svg2003"
   inkscape:version="1.0.2-2 (e86c870879, 2021-01-15)"
   sodipodi:docname="cicruict board small.svg">
  <defs
     id="defs1997" />
  <sodipodi:namedview
     id="base"
     pagecolor="#ffffff"
     bordercolor="#666666"
     borderopacity="1.0"
     inkscape:pageopacity="0.0"
     inkscape:pageshadow="2"
     inkscape:zoom="1.2546497"
     inkscape:cx="261.92441"
     inkscape:cy="254.99524"
     inkscape:document-units="mm"
     inkscape:current-layer="layer1"
     inkscape:document-rotation="0"
     showgrid="false"
     inkscape:window-width="1920"
     inkscape:window-height="1017"
     inkscape:window-x="-8"
     inkscape:window-y="-8"
     inkscape:window-maximized="1"
     fit-margin-top="0"
     fit-margin-left="0"
     fit-margin-right="0"
     fit-margin-bottom="0" />
  <metadata
     id="metadata2000">
    <rdf:RDF>
      <cc:Work
         rdf:about="">
        <dc:format>image/svg+xml</dc:format>
        <dc:type
           rdf:resource="http://purl.org/dc/dcmitype/StillImage" />
        <dc:title />
      </cc:Work>
    </rdf:RDF>
  </metadata>
  <g
     inkscape:label="Warstwa 1"
     inkscape:groupmode="layer"
     id="layer1"
     transform="translate(7.9976633,-202.64866)">
    <g
       id="XMLID_809_"
       style="fill:#f1a403;fill-opacity:1"
       transform="matrix(0.11753886,0,0,0.11753886,6.490138,116.91444)">
      <linearGradient
         id="XMLID_57_"
         gradientUnits="userSpaceOnUse"
         x1="1096.4458"
         y1="634.15863"
         x2="3049.6411"
         y2="787.17389">
        <stop
           offset="0"
           style="stop-color:#FFFFFF"
           id="stop334" />
        <stop
           offset="1"
           style="stop-color:#4D4D4D"
           id="stop336" />
      </linearGradient>
      <linearGradient
         id="XMLID_58_"
         gradientUnits="userSpaceOnUse"
         x1="1093.9515"
         y1="665.99689"
         x2="3047.147"
         y2="819.01221">
        <stop
           offset="0"
           style="stop-color:#FFFFFF"
           id="stop340" />
        <stop
           offset="1"
           style="stop-color:#4D4D4D"
           id="stop342" />
      </linearGradient>
      <linearGradient
         id="XMLID_59_"
         gradientUnits="userSpaceOnUse"
         x1="1096.6172"
         y1="631.97137"
         x2="3049.8125"
         y2="784.98682">
        <stop
           offset="0"
           style="stop-color:#FFFFFF"
           id="stop346" />
        <stop
           offset="1"
           style="stop-color:#4D4D4D"
           id="stop348" />
      </linearGradient>
      <linearGradient
         id="XMLID_60_"
         gradientUnits="userSpaceOnUse"
         x1="1097.2898"
         y1="623.38593"
         x2="3050.4851"
         y2="776.40118">
        <stop
           offset="0"
           style="stop-color:#FFFFFF"
           id="stop352" />
        <stop
           offset="1"
           style="stop-color:#4D4D4D"
           id="stop354" />
      </linearGradient>
      <linearGradient
         id="XMLID_61_"
         gradientUnits="userSpaceOnUse"
         x1="1094.349"
         y1="660.92322"
         x2="3047.5444"
         y2="813.93848">
        <stop
           offset="0"
           style="stop-color:#FFFFFF"
           id="stop358" />
        <stop
           offset="1"
           style="stop-color:#4D4D4D"
           id="stop360" />
      </linearGradient>
      <linearGradient
         id="XMLID_62_"
         gradientUnits="userSpaceOnUse"
         x1="1092.5924"
         y1="683.34631"
         x2="3045.7876"
         y2="836.36157">
        <stop
           offset="0"
           style="stop-color:#FFFFFF"
           id="stop364" />
        <stop
           offset="1"
           style="stop-color:#4D4D4D"
           id="stop366" />
      </linearGradient>
      <linearGradient
         id="XMLID_63_"
         gradientUnits="userSpaceOnUse"
         x1="1112.6741"
         y1="427.00931"
         x2="3065.8694"
         y2="580.0246">
        <stop
           offset="0"
           style="stop-color:#FFFFFF"
           id="stop370" />
        <stop
           offset="1"
           style="stop-color:#4D4D4D"
           id="stop372" />
      </linearGradient>
      <linearGradient
         id="XMLID_64_"
         gradientUnits="userSpaceOnUse"
         x1="1084.9465"
         y1="780.94318"
         x2="3038.1418"
         y2="933.9585">
        <stop
           offset="0"
           style="stop-color:#FFFFFF"
           id="stop376" />
        <stop
           offset="1"
           style="stop-color:#4D4D4D"
           id="stop378" />
      </linearGradient>
      <linearGradient
         id="XMLID_65_"
         gradientUnits="userSpaceOnUse"
         x1="1062.8961"
         y1="1062.4106"
         x2="3016.0913"
         y2="1215.4259">
        <stop
           offset="0"
           style="stop-color:#FFFFFF"
           id="stop382" />
        <stop
           offset="1"
           style="stop-color:#4D4D4D"
           id="stop384" />
      </linearGradient>
      <path
         id="XMLID_896_"
         style="fill:#f1a403;fill-opacity:1"
         d="m 1035.2558,1151.3 -188.14108,-0.191 v 10 l 188.14108,0.191 h 54.8 85.1 l 96,-100.1 v -41.8 h -10 v 37.8 l -90.2,94.1 h -80.9 z"
         sodipodi:nodetypes="ccccccccccccc" />
      <linearGradient
         id="XMLID_66_"
         gradientUnits="userSpaceOnUse"
         x1="1049.8611"
         y1="1228.7988"
         x2="3003.0564"
         y2="1381.8141">
        <stop
           offset="0"
           style="stop-color:#FFFFFF"
           id="stop388" />
        <stop
           offset="1"
           style="stop-color:#4D4D4D"
           id="stop390" />
      </linearGradient>
      <path
         id="XMLID_897_"
         fill="url(#XMLID_66_)"
         d="m 1018.6558,1244.2 v -56.7 l -171.54108,-0.3819 v 10 l 161.54108,0.3819 v 50.8 l 1.5,1.5 c 26.6,26.6 41.5,41.5 68.1,68 l 1.5,1.5 h 170.6 v -10 h -166.4 c -25.4,-25.1 -40.2,-39.9 -65.3,-65.1 z"
         style="fill:#f1a403;fill-opacity:1"
         sodipodi:nodetypes="ccccccscccccc" />
      <linearGradient
         id="XMLID_67_"
         gradientUnits="userSpaceOnUse"
         x1="1037.9489"
         y1="1380.8556"
         x2="2991.144"
         y2="1533.8708">
        <stop
           offset="0"
           style="stop-color:#FFFFFF"
           id="stop394" />
        <stop
           offset="1"
           style="stop-color:#4D4D4D"
           id="stop396" />
      </linearGradient>
      <linearGradient
         id="XMLID_68_"
         gradientUnits="userSpaceOnUse"
         x1="1037.0526"
         y1="1392.2952"
         x2="2990.248"
         y2="1545.3105">
        <stop
           offset="0"
           style="stop-color:#FFFFFF"
           id="stop400" />
        <stop
           offset="1"
           style="stop-color:#4D4D4D"
           id="stop402" />
      </linearGradient>
      <linearGradient
         id="XMLID_69_"
         gradientUnits="userSpaceOnUse"
         x1="1038.3453"
         y1="1375.7932"
         x2="2991.5408"
         y2="1528.8086">
        <stop
           offset="0"
           style="stop-color:#FFFFFF"
           id="stop406" />
        <stop
           offset="1"
           style="stop-color:#4D4D4D"
           id="stop408" />
      </linearGradient>
      <linearGradient
         id="XMLID_70_"
         gradientUnits="userSpaceOnUse"
         x1="1036.7673"
         y1="1395.9365"
         x2="2989.9626"
         y2="1548.9519">
        <stop
           offset="0"
           style="stop-color:#FFFFFF"
           id="stop412" />
        <stop
           offset="1"
           style="stop-color:#4D4D4D"
           id="stop414" />
      </linearGradient>
      <linearGradient
         id="XMLID_71_"
         gradientUnits="userSpaceOnUse"
         x1="1040.2079"
         y1="1352.0194"
         x2="2993.4031"
         y2="1505.0347">
        <stop
           offset="0"
           style="stop-color:#FFFFFF"
           id="stop418" />
        <stop
           offset="1"
           style="stop-color:#4D4D4D"
           id="stop420" />
      </linearGradient>
      <path
         id="XMLID_902_"
         style="fill:#f1a403;fill-opacity:1"
         d="M 207.96389,1523.9858 383.4,1349.9 h 149.7 l 224.8,-224.8 h 120.4 v -10 H 753.8 L 529,1339.9 H 379.3 l -183.91842,184.0644 z"
         sodipodi:nodetypes="ccccccccccc" />
      <linearGradient
         id="XMLID_72_"
         gradientUnits="userSpaceOnUse"
         x1="1038.8761"
         y1="1369.0184"
         x2="2992.0715"
         y2="1522.0337">
        <stop
           offset="0"
           style="stop-color:#FFFFFF"
           id="stop424" />
        <stop
           offset="1"
           style="stop-color:#4D4D4D"
           id="stop426" />
      </linearGradient>
      <path
         id="XMLID_903_"
         fill="url(#XMLID_72_)"
         d="m 757.9,1161.1 h 120.4 v -10 0 H 753.8 l -1.5,1.5 L 383.22788,1524.1027 395.1,1524 c 0,0 337.1,-337.2 362.8,-362.9 z"
         style="fill:#f1a403;fill-opacity:1"
         sodipodi:nodetypes="ccccccccc" />
      <linearGradient
         id="XMLID_73_"
         gradientUnits="userSpaceOnUse"
         x1="1038.3391"
         y1="1375.8737"
         x2="2991.5344"
         y2="1528.8889">
        <stop
           offset="0"
           style="stop-color:#FFFFFF"
           id="stop430" />
        <stop
           offset="1"
           style="stop-color:#4D4D4D"
           id="stop432" />
      </linearGradient>
      <path
         id="XMLID_904_"
         fill="url(#XMLID_73_)"
         d="m 756.1,1199.8 c 0.9,-1.1 1.7,-1.9 2.4,-2.7 h 119.9 v -10 0 H 750.9 v 3.5 c -0.5,0.6 -1.2,1.4 -2.1,2.4 -4.1,4.5 -329.68035,331.2109 -329.68035,331.2109 l 11.77212,0.1674 c 0,0 322.80823,-321.9783 325.20823,-324.5783 z"
         style="fill:#f1a403;fill-opacity:1"
         sodipodi:nodetypes="ccccccccccc" />
      <linearGradient
         id="XMLID_74_"
         gradientUnits="userSpaceOnUse"
         x1="1078.4739"
         y1="863.56427"
         x2="3031.6692"
         y2="1016.5796">
        <stop
           offset="0"
           style="stop-color:#FFFFFF"
           id="stop436" />
        <stop
           offset="1"
           style="stop-color:#4D4D4D"
           id="stop438" />
      </linearGradient>
      <path
         id="XMLID_905_"
         style="fill:#f1a403;fill-opacity:1"
         d="M 947.32311,980.87516 1089.3226,838.2 h 43 v -47.4 h -10 v 37.4 h -37.1 l -141.99949,142 h -47.06749 v 10.67516 z"
         sodipodi:nodetypes="ccccccccccc" />
      <linearGradient
         id="XMLID_75_"
         gradientUnits="userSpaceOnUse"
         x1="1078.8477"
         y1="858.79449"
         x2="3032.043"
         y2="1011.8098">
        <stop
           offset="0"
           style="stop-color:#FFFFFF"
           id="stop442" />
        <stop
           offset="1"
           style="stop-color:#4D4D4D"
           id="stop444" />
      </linearGradient>
      <path
         id="XMLID_906_"
         style="fill:#f1a403;fill-opacity:1"
         d="m 1186.9558,867.8 v -80.4 l 32.2,-32.2 -7.1,-7 -35.1,35.1 v 74.5 h -54.1 l -148.59997,148.6 h -67.70235 v 10 h 71.90235 L 1127.0558,867.8 Z"
         sodipodi:nodetypes="ccccccccccccc" />
      <linearGradient
         id="XMLID_76_"
         gradientUnits="userSpaceOnUse"
         x1="1075.5331"
         y1="901.1037"
         x2="3028.7283"
         y2="1054.119">
        <stop
           offset="0"
           style="stop-color:#FFFFFF"
           id="stop448" />
        <stop
           offset="1"
           style="stop-color:#4D4D4D"
           id="stop450" />
      </linearGradient>
      <path
         id="XMLID_907_"
         style="fill:#f1a403;fill-opacity:1"
         d="m 1331.3558,842.6 v -35.4 h -10 v 25.4 h -118.3 V 882 h -70.6 l -160.59997,160.6 h -94.50306 v 10 h 98.60306 L 1136.6558,892 h 76.4 v -49.4 z"
         sodipodi:nodetypes="ccccccccccccccc" />
      <linearGradient
         id="XMLID_77_"
         gradientUnits="userSpaceOnUse"
         x1="1067.4534"
         y1="1004.2393"
         x2="3020.6487"
         y2="1157.2545">
        <stop
           offset="0"
           style="stop-color:#FFFFFF"
           id="stop454" />
        <stop
           offset="1"
           style="stop-color:#4D4D4D"
           id="stop456" />
      </linearGradient>
      <path
         id="XMLID_908_"
         style="fill:#f1a403;fill-opacity:1"
         d="m 1181.8558,1125.1 39,-39 V 948 h 50.1 v -10 h -60.1 v 144 l -33.1,33.1 H 840.23279 v 10 z"
         sodipodi:nodetypes="ccccccccccc" />
      <linearGradient
         id="XMLID_78_"
         gradientUnits="userSpaceOnUse"
         x1="1116.8384"
         y1="373.85391"
         x2="3070.0337"
         y2="526.86908">
        <stop
           offset="0"
           style="stop-color:#FFFFFF"
           id="stop460" />
        <stop
           offset="1"
           style="stop-color:#4D4D4D"
           id="stop462" />
      </linearGradient>
      <linearGradient
         id="XMLID_79_"
         gradientUnits="userSpaceOnUse"
         x1="1093.6448"
         y1="669.91351"
         x2="3046.8401"
         y2="822.92877">
        <stop
           offset="0"
           style="stop-color:#FFFFFF"
           id="stop466" />
        <stop
           offset="1"
           style="stop-color:#4D4D4D"
           id="stop468" />
      </linearGradient>
      <linearGradient
         id="XMLID_80_"
         gradientUnits="userSpaceOnUse"
         x1="1053.9413"
         y1="1176.7158"
         x2="3007.1367"
         y2="1329.7311">
        <stop
           offset="0"
           style="stop-color:#FFFFFF"
           id="stop472" />
        <stop
           offset="1"
           style="stop-color:#4D4D4D"
           id="stop474" />
      </linearGradient>
      <path
         id="XMLID_919_"
         fill="url(#XMLID_80_)"
         d="m 539.9,1254.4 c 2.5,2.3 5.9,3.8 9.5,3.8 0.3,0 0.5,0 0.8,0 v 0 c 3.7,-0.2 7,-1.9 9.3,-4.4 1.3,-1.4 2.4,-3.2 3,-5 h 6.4 l 33.4,-33.4 v 0 c 63.3,-63.3 99.5,-99.5 162.8,-162.8 h 122.7 v -10 0 H 761 l -1.5,1.5 c -64.7,64.7 -101,101 -165.7,165.7 l -1.5,1.5 v 0 l -27.5,27.5 h -2.6 c -0.8,-1.8 -1.9,-3.3 -3.2,-4.6 -2.5,-2.3 -5.9,-3.8 -9.5,-3.8 -0.3,0 -0.5,0 -0.8,0 -3.7,0.2 -7,1.9 -9.3,4.4 -2.3,2.5 -3.8,5.9 -3.8,9.5 0,0.3 0,0.5 0,0.8 v 0 c 0.2,3.7 1.8,7 4.3,9.3 z m 5.7,-10.1 c 0,-1 0.4,-2 1.1,-2.7 0.7,-0.7 1.6,-1.2 2.6,-1.2 h 0.2 c 1,0 2,0.4 2.7,1.1 0.7,0.7 1.2,1.6 1.2,2.6 v 0.2 c 0,1 -0.4,2 -1.1,2.7 -0.7,0.7 -1.6,1.2 -2.6,1.2 h -0.2 c -1,0 -2,-0.4 -2.7,-1.1 -0.7,-0.7 -1.2,-1.6 -1.2,-2.6 l -5,0.3 5,-0.3 z"
         style="fill:#f1a403;fill-opacity:1" />
      <linearGradient
         id="XMLID_81_"
         gradientUnits="userSpaceOnUse"
         x1="1047.8734"
         y1="1254.1714"
         x2="3001.0686"
         y2="1407.1866">
        <stop
           offset="0"
           style="stop-color:#FFFFFF"
           id="stop478" />
        <stop
           offset="1"
           style="stop-color:#4D4D4D"
           id="stop480" />
      </linearGradient>
      <path
         id="XMLID_920_"
         style="fill:#f1a403;fill-opacity:1"
         d="m -91.497627,1525.0367 13.446471,-0.1489 L 122.4,1308.5 h 378.2 l 30.2,-30.2 v -54 l 207.9,-207.9 h 168 v -10 H 734.6 l -213.8,213.8 v 54 l -24.3,24.3 H 118.3 Z"
         sodipodi:nodetypes="ccccccccccccccc" />
      <linearGradient
         id="XMLID_82_"
         gradientUnits="userSpaceOnUse"
         x1="1043.3457"
         y1="1311.9653"
         x2="2996.541"
         y2="1464.9806">
        <stop
           offset="0"
           style="stop-color:#FFFFFF"
           id="stop484" />
        <stop
           offset="1"
           style="stop-color:#4D4D4D"
           id="stop486" />
      </linearGradient>
      <path
         id="XMLID_928_"
         fill="url(#XMLID_82_)"
         d="m 313.6,1249.8 h 175.5 c 0.8,1.8 1.9,3.3 3.2,4.6 2.5,2.3 5.9,3.8 9.5,3.8 0.3,0 0.5,0 0.8,0 v 0 c 3.7,-0.2 7,-1.9 9.3,-4.4 2.3,-2.5 3.8,-5.9 3.8,-9.5 0,-0.3 0,-0.5 0,-0.8 -0.2,-3.7 -1.9,-7 -4.4,-9.3 -2.5,-2.3 -5.9,-3.8 -9.5,-3.8 -0.3,0 -0.5,0 -0.8,0 -3.7,0.2 -7,1.9 -9.3,4.4 -1.3,1.4 -2.4,3.2 -3,5 H 309.4 l -1.5,1.5 c -9,9 -14.3,14.3 -22.8,22.8 -3.3,0.4 -6.2,2 -8.4,4.3 -2.3,2.5 -3.8,5.9 -3.8,9.5 0,0.3 0,0.5 0,0.8 v 0 c 0.2,3.7 1.9,7 4.4,9.3 2.5,2.3 5.9,3.8 9.5,3.8 0.3,0 0.5,0 0.8,0 v 0 c 3.7,-0.2 7,-1.9 9.3,-4.4 2.3,-2.5 3.8,-5.9 3.8,-9.5 0,-0.3 0,-0.5 0,-0.8 -0.2,-3.7 -1.9,-7 -4.4,-9.3 -0.1,-0.1 -0.3,-0.3 -0.4,-0.4 6.1,-6 10.9,-10.8 17.7,-17.6 z m 185.4,-8.2 c 0.7,-0.7 1.6,-1.2 2.6,-1.2 h 0.2 c 1,0 2,0.4 2.7,1.1 0.7,0.7 1.2,1.6 1.2,2.6 v 0.2 c 0,1 -0.4,2 -1.1,2.7 -0.7,0.7 -1.6,1.2 -2.6,1.2 h -0.2 c -1,0 -2,-0.4 -2.7,-1.1 -0.7,-0.7 -1.2,-1.6 -1.2,-2.6 l -5,0.3 5,-0.3 v -0.2 c 0,-1 0.4,-1.9 1.1,-2.7 z m -209.3,39 c -0.7,0.7 -1.6,1.2 -2.6,1.2 h -0.2 c -1,0 -2,-0.4 -2.7,-1.1 -0.7,-0.7 -1.2,-1.6 -1.2,-2.6 l -5,0.3 5,-0.3 v -0.2 c 0,-1 0.4,-2 1.1,-2.7 0.7,-0.7 1.6,-1.2 2.6,-1.2 h 0.2 c 1,0 2,0.4 2.7,1.1 0.7,0.7 1.2,1.6 1.2,2.6 v 0.2 c 0,1.1 -0.4,2 -1.1,2.7 z"
         style="fill:#f1a403;fill-opacity:1" />
      <linearGradient
         id="XMLID_83_"
         gradientUnits="userSpaceOnUse"
         x1="1031.1969"
         y1="1467.0422"
         x2="2984.3921"
         y2="1620.0576">
        <stop
           offset="0"
           style="stop-color:#FFFFFF"
           id="stop490" />
        <stop
           offset="1"
           style="stop-color:#4D4D4D"
           id="stop492" />
      </linearGradient>
      <path
         id="XMLID_932_"
         fill="url(#XMLID_83_)"
         d="m 291.1,1376.1 1.3,-1.4 v -30 c 1.8,-0.8 3.3,-1.9 4.6,-3.2 2.3,-2.5 3.8,-5.9 3.8,-9.5 v -0.8 c -0.2,-3.7 -1.9,-7 -4.4,-9.3 -2.5,-2.3 -5.9,-3.8 -9.5,-3.8 h -0.8 v 0 c -3.7,0.2 -7,1.9 -9.3,4.4 -2.3,2.5 -3.8,5.9 -3.8,9.5 v 0.8 0 c 0.2,3.7 1.9,7 4.4,9.3 1.4,1.3 3.2,2.4 5,3 v 25.7 c -5.9,6.5 -149.18442,153.4491 -149.18442,153.4491 l 13.44026,-0.2131 z m -8.1,-44.2 c 0,-1 0.4,-2 1.1,-2.7 0.7,-0.7 1.6,-1.2 2.6,-1.2 v 0 h 0.2 c 1,0 2,0.4 2.7,1.1 0.7,0.7 1.2,1.6 1.2,2.6 v 0.2 c 0,1 -0.4,2 -1.1,2.7 -0.7,0.7 -1.6,1.2 -2.6,1.2 h -0.2 c -1,0 -2,-0.4 -2.7,-1.1 -0.7,-0.7 -1.2,-1.6 -1.2,-2.6 l -5,0.3 5,-0.3 z"
         style="fill:#f1a403;fill-opacity:1"
         sodipodi:nodetypes="ccccscsscssscsccccccssscsssssssscccs" />
      <linearGradient
         id="XMLID_84_"
         gradientUnits="userSpaceOnUse"
         x1="1030.0287"
         y1="1481.9532"
         x2="2983.2241"
         y2="1634.9685">
        <stop
           offset="0"
           style="stop-color:#FFFFFF"
           id="stop496" />
        <stop
           offset="1"
           style="stop-color:#4D4D4D"
           id="stop498" />
      </linearGradient>
      <path
         id="XMLID_935_"
         fill="url(#XMLID_84_)"
         d="m 436.4,1382.2 c 2,-0.8 3.7,-1.9 5.1,-3.4 2.3,-2.5 3.8,-5.9 3.8,-9.5 v -0.8 c -0.2,-3.7 -1.9,-7 -4.4,-9.3 -2.5,-2.3 -5.9,-3.8 -9.5,-3.8 h -0.8 c -3.7,0.2 -7,1.9 -9.3,4.4 -2.3,2.5 -3.8,5.9 -3.8,9.5 v 0.8 0 c 0.2,3.7 1.9,7 4.4,9.3 1.3,1.2 2.8,2.2 4.5,2.8 v 15.7 l -119.7263,126.2335 12.9388,-0.076 L 436.4,1402.1 Z m -8.9,-13 c 0,-1 0.4,-2 1.1,-2.7 0.7,-0.7 1.6,-1.2 2.6,-1.2 h 0.2 c 1,0 2,0.4 2.7,1.1 0.7,0.7 1.2,1.6 1.2,2.6 v 0.2 c 0,1 -0.4,2 -1.1,2.7 -0.7,0.7 -1.6,1.2 -2.6,1.2 h -0.2 c -1,0 -2,-0.4 -2.7,-1.1 -0.7,-0.7 -1.2,-1.6 -1.2,-2.6 l -5,0.3 5,-0.3 z"
         style="fill:#f1a403;fill-opacity:1"
         sodipodi:nodetypes="ccscsscsscscccccccssssssssssscccs" />
      <linearGradient
         id="XMLID_85_"
         gradientUnits="userSpaceOnUse"
         x1="1049.6675"
         y1="1231.2708"
         x2="3002.8628"
         y2="1384.286">
        <stop
           offset="0"
           style="stop-color:#FFFFFF"
           id="stop502" />
        <stop
           offset="1"
           style="stop-color:#4D4D4D"
           id="stop504" />
      </linearGradient>
      <path
         id="XMLID_936_"
         style="fill:#f1a403;fill-opacity:1"
         d="M 160.5,1206.6 H 466 L 692.4,980.2 h 195.5 v -10 H 688.3 L 461.8,1196.6 H 156.4 l -285.96056,289.8645 13.48015,-0.021 z"
         transform="matrix(1.0019356,0,0,1.074842,6.5516682,-72.611733)"
         sodipodi:nodetypes="ccccccccccc" />
      <linearGradient
         id="XMLID_86_"
         gradientUnits="userSpaceOnUse"
         x1="1065.9521"
         y1="1023.4009"
         x2="3019.1475"
         y2="1176.4163">
        <stop
           offset="0"
           style="stop-color:#FFFFFF"
           id="stop508" />
        <stop
           offset="1"
           style="stop-color:#4D4D4D"
           id="stop510" />
      </linearGradient>
      <linearGradient
         id="XMLID_87_"
         gradientUnits="userSpaceOnUse"
         x1="1120.7389"
         y1="324.06421"
         x2="3073.9343"
         y2="477.0795">
        <stop
           offset="0"
           style="stop-color:#FFFFFF"
           id="stop514" />
        <stop
           offset="1"
           style="stop-color:#4D4D4D"
           id="stop516" />
      </linearGradient>
    </g>
    <path
       id="XMLID_935_-1"
       fill="url(#XMLID_84_)"
       d="m 152.52955,271.99055 c 0.0983,0.23332 0.23124,0.43075 0.41053,0.59204 0.29875,0.26492 0.70154,0.43389 1.12461,0.42615 l 0.094,-0.002 c 0.43439,-0.0315 0.81855,-0.23834 1.08347,-0.53708 0.26492,-0.29874 0.43389,-0.70153 0.42615,-1.1246 l -0.002,-0.094 c -0.0315,-0.43439 -0.23834,-0.81854 -0.53708,-1.08346 -0.29875,-0.26492 -0.70154,-0.43389 -1.12461,-0.42615 l -0.094,0.002 v 0 c -0.4344,0.0314 -0.81855,0.23833 -1.08347,0.53708 -0.13823,0.15535 -0.25252,0.33378 -0.31938,0.53485 z m 1.50861,-1.07386 c 0.11752,-0.002 0.2359,0.0427 0.31967,0.12346 0.0838,0.0808 0.14446,0.18545 0.14661,0.30297 l 4.3e-4,0.0235 c 0.002,0.11752 -0.0427,0.2359 -0.12346,0.31967 -0.0808,0.0838 -0.18545,0.14446 -0.30297,0.14661 l -0.0235,4.3e-4 c -0.11752,0.002 -0.23589,-0.0427 -0.31966,-0.12346 -0.0838,-0.0808 -0.14447,-0.18545 -0.14662,-0.30297 l -4.3e-4,-0.0235 c -0.002,-0.11753 0.0427,-0.23591 0.12347,-0.31968 0.0808,-0.0838 0.18546,-0.14445 0.30298,-0.1466 l -0.0461,-0.58696 0.0461,0.58696 z"
       style="fill:#bac7d6;fill-opacity:1;stroke-width:0.117539"
       sodipodi:nodetypes="ccscsscsscscccssssssssssscccs" />
    <path
       id="XMLID_935_-1-0"
       fill="url(#XMLID_84_)"
       d="m 155.85891,228.34106 c 0.0983,0.23332 0.23124,0.43075 0.41053,0.59204 0.29875,0.26492 0.70154,0.43389 1.12461,0.42615 l 0.094,-0.002 c 0.43439,-0.0315 0.81855,-0.23834 1.08347,-0.53708 0.26492,-0.29874 0.43389,-0.70153 0.42615,-1.1246 l -0.002,-0.094 c -0.0315,-0.43439 -0.23834,-0.81854 -0.53708,-1.08346 -0.29875,-0.26492 -0.70154,-0.43389 -1.12461,-0.42615 l -0.094,0.002 v 0 c -0.4344,0.0314 -0.81855,0.23833 -1.08347,0.53708 -0.13823,0.15535 -0.25252,0.33378 -0.31938,0.53485 z m 1.50861,-1.07386 c 0.11752,-0.002 0.2359,0.0427 0.31967,0.12346 0.0838,0.0808 0.14446,0.18545 0.14661,0.30297 l 4.3e-4,0.0235 c 0.002,0.11752 -0.0427,0.2359 -0.12346,0.31967 -0.0808,0.0838 -0.18545,0.14446 -0.30297,0.14661 l -0.0235,4.3e-4 c -0.11752,0.002 -0.23589,-0.0427 -0.31966,-0.12346 -0.0838,-0.0808 -0.14447,-0.18545 -0.14662,-0.30297 l -4.3e-4,-0.0235 c -0.002,-0.11753 0.0427,-0.23591 0.12347,-0.31968 0.0808,-0.0838 0.18546,-0.14445 0.30298,-0.1466 l -0.0461,-0.58696 0.0461,0.58696 z"
       style="fill:#bac7d6;fill-opacity:1;stroke-width:0.117539"
       sodipodi:nodetypes="ccscsscsscscccssssssssssscccs" />
    <path
       id="XMLID_935_-1-0-6"
       fill="url(#XMLID_84_)"
       d="m 155.82158,236.83279 c 0.23332,-0.0983 0.43075,-0.23124 0.59204,-0.41053 0.26492,-0.29875 0.43389,-0.70154 0.42615,-1.12461 l -0.002,-0.094 c -0.0315,-0.43439 -0.23834,-0.81855 -0.53708,-1.08347 -0.29874,-0.26492 -0.70153,-0.43389 -1.1246,-0.42615 l -0.094,0.002 c -0.43439,0.0315 -0.81854,0.23834 -1.08346,0.53708 -0.26492,0.29875 -0.43389,0.70154 -0.42615,1.12461 l 0.002,0.094 v 0 c 0.0314,0.4344 0.23833,0.81855 0.53708,1.08347 0.15535,0.13823 0.33378,0.25252 0.53485,0.31938 z m -1.07386,-1.50861 c -0.002,-0.11752 0.0427,-0.2359 0.12346,-0.31967 0.0808,-0.0838 0.18545,-0.14446 0.30297,-0.14661 l 0.0235,-4.3e-4 c 0.11752,-0.002 0.2359,0.0427 0.31967,0.12346 0.0838,0.0808 0.14446,0.18545 0.14661,0.30297 l 4.3e-4,0.0235 c 0.002,0.11752 -0.0427,0.23589 -0.12346,0.31966 -0.0808,0.0838 -0.18545,0.14447 -0.30297,0.14662 l -0.0235,4.3e-4 c -0.11753,0.002 -0.23591,-0.0427 -0.31968,-0.12347 -0.0838,-0.0808 -0.14445,-0.18546 -0.1466,-0.30298 l -0.58696,0.0461 0.58696,-0.0461 z"
       style="fill:#bac7d6;fill-opacity:1;stroke-width:0.117539"
       sodipodi:nodetypes="ccscsscsscscccssssssssssscccs" />
    <path
       id="XMLID_935_-1-0-6-4"
       fill="url(#XMLID_84_)"
       d="m 149.84549,205.77887 c 0.23449,0.0955 0.4681,0.14107 0.70892,0.12834 0.39858,-0.0239 0.80288,-0.18925 1.09656,-0.49388 l 0.065,-0.0679 c 0.28489,-0.32944 0.41027,-0.74734 0.38636,-1.14591 -0.0239,-0.39856 -0.18925,-0.80286 -0.49388,-1.09654 l -0.0679,-0.0651 c -0.32944,-0.28488 -0.74733,-0.41026 -1.1459,-0.38635 -0.39857,0.0239 -0.80287,0.18926 -1.09655,0.49389 l -0.065,0.0679 v 0 c -0.28497,0.32937 -0.41028,0.74733 -0.38636,1.1459 0.0121,0.2076 0.0575,0.41458 0.15236,0.60404 z m 0.30742,-1.82609 c 0.0817,-0.0845 0.197,-0.13661 0.31334,-0.13874 0.11639,-0.002 0.23328,0.029 0.3179,0.11057 l 0.0169,0.0163 c 0.0845,0.0817 0.13661,0.197 0.13874,0.31334 0.002,0.11639 -0.029,0.23328 -0.11056,0.3179 l -0.0163,0.0169 c -0.0817,0.0845 -0.19699,0.13661 -0.31333,0.13874 -0.11639,0.002 -0.23329,-0.029 -0.31791,-0.11056 l -0.0169,-0.0163 c -0.0845,-0.0817 -0.13662,-0.19701 -0.13874,-0.31336 -0.002,-0.11639 0.029,-0.23328 0.11058,-0.3179 l -0.44764,-0.38244 0.44764,0.38244 z"
       style="fill:#bac7d6;fill-opacity:1;stroke-width:0.117539"
       sodipodi:nodetypes="ccscsscsscscccssssssssssscccs" />
    <path
       id="XMLID_935_-1-0-6-4-3"
       fill="url(#XMLID_84_)"
       d="m 139.58205,209.86417 c 0.23332,-0.0983 0.43075,-0.23124 0.59204,-0.41053 0.26492,-0.29875 0.43389,-0.70154 0.42615,-1.12461 l -0.002,-0.094 c -0.0315,-0.43439 -0.23834,-0.81855 -0.53708,-1.08347 -0.29874,-0.26492 -0.70153,-0.43389 -1.1246,-0.42615 l -0.094,0.002 c -0.43439,0.0315 -0.81854,0.23834 -1.08346,0.53708 -0.26492,0.29875 -0.43389,0.70154 -0.42615,1.12461 l 0.002,0.094 v 0 c 0.0314,0.4344 0.23833,0.81855 0.53708,1.08347 0.15535,0.13823 0.33378,0.25252 0.53485,0.31938 z m -1.07386,-1.50861 c -0.002,-0.11752 0.0427,-0.2359 0.12346,-0.31967 0.0808,-0.0838 0.18545,-0.14446 0.30297,-0.14661 l 0.0235,-4.3e-4 c 0.11752,-0.002 0.2359,0.0427 0.31967,0.12346 0.0838,0.0808 0.14446,0.18545 0.14661,0.30297 l 4.3e-4,0.0235 c 0.002,0.11752 -0.0427,0.23589 -0.12346,0.31966 -0.0808,0.0838 -0.18545,0.14447 -0.30297,0.14662 l -0.0235,4.3e-4 c -0.11753,0.002 -0.23591,-0.0427 -0.31968,-0.12347 -0.0838,-0.0808 -0.14445,-0.18546 -0.1466,-0.30298 l -0.58696,0.0461 0.58696,-0.0461 z"
       style="fill:#bac7d6;fill-opacity:1;stroke-width:0.117539"
       sodipodi:nodetypes="ccscsscsscscccssssssssssscccs" />
    <path
       id="XMLID_935_-1-3"
       fill="url(#XMLID_84_)"
       d="m 57.795082,279.36381 c 0.23332,-0.0983 0.43075,-0.23124 0.59204,-0.41053 0.26492,-0.29875 0.43389,-0.70154 0.42615,-1.12461 l -0.002,-0.094 c -0.0315,-0.43439 -0.23834,-0.81855 -0.53708,-1.08347 -0.29874,-0.26492 -0.70153,-0.43389 -1.1246,-0.42615 l -0.094,0.002 c -0.43439,0.0315 -0.81854,0.23834 -1.08346,0.53708 -0.26492,0.29875 -0.43389,0.70154 -0.42615,1.12461 l 0.002,0.094 v 0 c 0.0314,0.4344 0.23833,0.81855 0.53708,1.08347 0.15535,0.13823 0.33378,0.25252 0.53485,0.31938 z m -1.07386,-1.50861 c -0.002,-0.11752 0.0427,-0.2359 0.12346,-0.31967 0.0808,-0.0838 0.18545,-0.14446 0.30297,-0.14661 l 0.0235,-4.3e-4 c 0.11752,-0.002 0.2359,0.0427 0.31967,0.12346 0.0838,0.0808 0.14446,0.18545 0.14661,0.30297 l 4.3e-4,0.0235 c 0.002,0.11752 -0.0427,0.23589 -0.12346,0.31966 -0.0808,0.0838 -0.18545,0.14447 -0.30297,0.14662 l -0.0235,4.3e-4 c -0.11753,0.002 -0.23591,-0.0427 -0.31968,-0.12347 -0.0838,-0.0808 -0.14445,-0.18546 -0.1466,-0.30298 l -0.58696,0.0461 0.58696,-0.0461 z"
       style="fill:#bac7d6;fill-opacity:1;stroke-width:0.117539"
       sodipodi:nodetypes="ccscsscsscscccssssssssssscccs" />
    <path
       id="XMLID_935_-1-3-7"
       fill="url(#XMLID_84_)"
       d="m 63.948698,263.78942 c 0.0983,0.23332 0.23124,0.43075 0.41053,0.59204 0.29875,0.26492 0.70154,0.43389 1.12461,0.42615 l 0.094,-0.002 c 0.43439,-0.0315 0.81855,-0.23834 1.08347,-0.53708 0.26492,-0.29874 0.43389,-0.70153 0.42615,-1.1246 l -0.002,-0.094 c -0.0315,-0.43439 -0.23834,-0.81854 -0.53708,-1.08346 -0.29875,-0.26492 -0.70154,-0.43389 -1.12461,-0.42615 l -0.094,0.002 v 0 c -0.4344,0.0314 -0.81855,0.23833 -1.08347,0.53708 -0.13823,0.15535 -0.25252,0.33378 -0.31938,0.53485 z m 1.50861,-1.07386 c 0.11752,-0.002 0.2359,0.0427 0.31967,0.12346 0.0838,0.0808 0.14446,0.18545 0.14661,0.30297 l 4.3e-4,0.0235 c 0.002,0.11752 -0.0427,0.2359 -0.12346,0.31967 -0.0808,0.0838 -0.18545,0.14446 -0.30297,0.14661 l -0.0235,4.3e-4 c -0.11752,0.002 -0.23589,-0.0427 -0.31966,-0.12346 -0.0838,-0.0808 -0.14447,-0.18545 -0.14662,-0.30297 l -4.3e-4,-0.0235 c -0.002,-0.11753 0.0427,-0.23591 0.12347,-0.31968 0.0808,-0.0838 0.18546,-0.14445 0.30298,-0.1466 l -0.0461,-0.58696 0.0461,0.58696 z"
       style="fill:#bac7d6;fill-opacity:1;stroke-width:0.117539"
       sodipodi:nodetypes="ccscsscsscscccssssssssssscccs" />
    <path
       id="XMLID_935_-1-3-76"
       fill="url(#XMLID_84_)"
       d="m 72.564656,262.56199 c -0.0983,-0.23332 -0.23124,-0.43075 -0.41053,-0.59204 -0.29875,-0.26492 -0.70154,-0.43389 -1.12461,-0.42615 l -0.094,0.002 c -0.43439,0.0315 -0.81855,0.23834 -1.08347,0.53708 -0.26492,0.29874 -0.43389,0.70153 -0.42615,1.1246 l 0.002,0.094 c 0.0315,0.43439 0.23834,0.81854 0.53708,1.08346 0.29875,0.26492 0.70154,0.43389 1.12461,0.42615 l 0.094,-0.002 v 0 c 0.4344,-0.0314 0.81855,-0.23833 1.08347,-0.53708 0.13823,-0.15535 0.25252,-0.33378 0.31938,-0.53485 z m -1.50861,1.07386 c -0.11752,0.002 -0.2359,-0.0427 -0.31967,-0.12346 -0.0838,-0.0808 -0.14446,-0.18545 -0.14661,-0.30297 l -4.3e-4,-0.0235 c -0.002,-0.11752 0.0427,-0.2359 0.12346,-0.31967 0.0808,-0.0838 0.18545,-0.14446 0.30297,-0.14661 l 0.0235,-4.3e-4 c 0.11752,-0.002 0.23589,0.0427 0.31966,0.12346 0.0838,0.0808 0.14447,0.18545 0.14662,0.30297 l 4.3e-4,0.0235 c 0.002,0.11753 -0.0427,0.23591 -0.12347,0.31968 -0.0808,0.0838 -0.18546,0.14445 -0.30298,0.1466 l 0.0461,0.58696 -0.0461,-0.58696 z"
       style="fill:#bac7d6;fill-opacity:1;stroke-width:0.117539"
       sodipodi:nodetypes="ccscsscsscscccssssssssssscccs" />
    <path
       id="XMLID_935_-1-3-8"
       fill="url(#XMLID_84_)"
       d="m 39.997868,265.50323 c -0.25081,0.0346 -0.47592,0.11188 -0.67812,0.24331 -0.33321,0.22001 -0.60068,0.56534 -0.7027,0.976 l -0.0224,0.0913 c -0.082,0.42774 0.0184,0.85235 0.23836,1.18556 0.21999,0.33321 0.56533,0.60068 0.97598,0.7027 l 0.0913,0.0224 c 0.42774,0.082 0.85234,-0.0184 1.18555,-0.23836 0.33322,-0.22001 0.60068,-0.56534 0.7027,-0.976 l 0.0224,-0.0913 v 0 c 0.0821,-0.42773 -0.0184,-0.85234 -0.23835,-1.18556 -0.11428,-0.17373 -0.25705,-0.3303 -0.43397,-0.44693 z m 0.64681,1.73515 c -0.0285,0.11403 -0.1023,0.21681 -0.20199,0.27682 -0.0997,0.06 -0.21652,0.0915 -0.33059,0.0632 l -0.0228,-0.006 c -0.11403,-0.0285 -0.21681,-0.1023 -0.27682,-0.20199 -0.06,-0.0997 -0.0915,-0.21652 -0.0632,-0.33059 l 0.006,-0.0228 c 0.0285,-0.11403 0.1023,-0.2168 0.20199,-0.27681 0.0997,-0.06 0.21652,-0.0915 0.33059,-0.0632 l 0.0228,0.006 c 0.11404,0.0285 0.21682,0.10231 0.27683,0.20201 0.06,0.0997 0.0915,0.21652 0.0632,0.33059 l 0.57889,0.10739 -0.57889,-0.10739 z"
       style="fill:#bac7d6;fill-opacity:1;stroke-width:0.117539"
       sodipodi:nodetypes="ccscsscsscscccssssssssssscccs" />
    <path
       id="XMLID_935_-1-3-2"
       fill="url(#XMLID_84_)"
       d="m 40.821308,274.991 c 0.23332,-0.0983 0.43075,-0.23124 0.59204,-0.41053 0.26492,-0.29875 0.43389,-0.70154 0.42615,-1.12461 l -0.002,-0.094 c -0.0315,-0.43439 -0.23834,-0.81855 -0.53708,-1.08347 -0.29874,-0.26492 -0.70153,-0.43389 -1.1246,-0.42615 l -0.094,0.002 c -0.43439,0.0315 -0.81854,0.23834 -1.08346,0.53708 -0.26492,0.29875 -0.43389,0.70154 -0.42615,1.12461 l 0.002,0.094 v 0 c 0.0314,0.4344 0.23833,0.81855 0.53708,1.08347 0.15535,0.13823 0.33378,0.25252 0.53485,0.31938 z m -1.07386,-1.50861 c -0.002,-0.11752 0.0427,-0.2359 0.12346,-0.31967 0.0808,-0.0838 0.18545,-0.14446 0.30297,-0.14661 l 0.0235,-4.3e-4 c 0.11752,-0.002 0.2359,0.0427 0.31967,0.12346 0.0838,0.0808 0.14446,0.18545 0.14661,0.30297 l 4.3e-4,0.0235 c 0.002,0.11752 -0.0427,0.23589 -0.12346,0.31966 -0.0808,0.0838 -0.18545,0.14447 -0.30297,0.14662 l -0.0235,4.3e-4 c -0.11753,0.002 -0.23591,-0.0427 -0.31968,-0.12347 -0.0838,-0.0808 -0.14445,-0.18546 -0.1466,-0.30298 l -0.58696,0.0461 0.58696,-0.0461 z"
       style="fill:#bac7d6;fill-opacity:1;stroke-width:0.117539"
       sodipodi:nodetypes="ccscsscsscscccssssssssssscccs" />
  </g>
</svg>
