<?xml version="1.0" encoding="UTF-8" standalone="no"?>
<svg
   xmlns:dc="http://purl.org/dc/elements/1.1/"
   xmlns:cc="http://creativecommons.org/ns#"
   xmlns:rdf="http://www.w3.org/1999/02/22-rdf-syntax-ns#"
   xmlns:svg="http://www.w3.org/2000/svg"
   xmlns="http://www.w3.org/2000/svg"
   xmlns:xlink="http://www.w3.org/1999/xlink"
   xmlns:sodipodi="http://sodipodi.sourceforge.net/DTD/sodipodi-0.dtd"
   xmlns:inkscape="http://www.inkscape.org/namespaces/inkscape"
   version="1.1"
   id="Layer_1"
   x="0px"
   y="0px"
   width="1434"
   height="1400"
   viewBox="0 0 1434 1400"
   enable-background="new 0 0 1400 1400"
   xml:space="preserve"
   sodipodi:docname="circuit board H4m4k.svg"
   inkscape:version="1.0.2-2 (e86c870879, 2021-01-15)"><metadata
   id="metadata529"><rdf:RDF><cc:Work
       rdf:about=""><dc:format>image/svg+xml</dc:format><dc:type
         rdf:resource="http://purl.org/dc/dcmitype/StillImage" /><dc:title /></cc:Work></rdf:RDF></metadata><defs
   id="defs527" /><sodipodi:namedview
   pagecolor="#ffffff"
   bordercolor="#666666"
   borderopacity="1"
   objecttolerance="10"
   gridtolerance="10"
   guidetolerance="10"
   inkscape:pageopacity="0"
   inkscape:pageshadow="2"
   inkscape:window-width="1920"
   inkscape:window-height="1017"
   id="namedview525"
   showgrid="false"
   inkscape:zoom="17.959638"
   inkscape:cx="1408.1674"
   inkscape:cy="388.52995"
   inkscape:window-x="1912"
   inkscape:window-y="87"
   inkscape:window-maximized="1"
   inkscape:current-layer="XMLID_1621_"
   inkscape:document-rotation="0" />
<g
   id="XMLID_1_">
	<radialGradient
   id="XMLID_3_"
   cx="480.79721"
   cy="339.85809"
   r="1271.7344"
   gradientUnits="userSpaceOnUse">
		<stop
   offset="0"
   style="stop-color:#FFFFFF"
   id="stop2" />
		<stop
   offset="0.2307"
   style="stop-color:#FBFBFB"
   id="stop4" />
		<stop
   offset="0.4762"
   style="stop-color:#EEEEEE"
   id="stop6" />
		<stop
   offset="0.7283"
   style="stop-color:#D9D9D9"
   id="stop8" />
		<stop
   offset="0.9838"
   style="stop-color:#BBBBBB"
   id="stop10" />
		<stop
   offset="1"
   style="stop-color:#B9B9B9"
   id="stop12" />
	</radialGradient>
	
	<g
   id="XMLID_1481_"
   style="fill:#bac7d6;;fill-opacity:1"
   transform="translate(35.527467)">
		<defs
   id="defs17">
			<rect
   id="XMLID_1480_"
   width="1400"
   height="1400"
   x="0"
   y="0" />
		</defs>
		<clipPath
   id="XMLID_4_">
			<use
   xlink:href="#XMLID_1480_"
   overflow="visible"
   id="use19"
   x="0"
   y="0"
   width="100%"
   height="100%" />
		</clipPath>
		<g
   id="XMLID_1621_"
   clip-path="url(#XMLID_4_)"
   style="fill:#bac7d6;;fill-opacity:1">
			<linearGradient
   id="XMLID_5_"
   gradientUnits="userSpaceOnUse"
   x1="1089.9673"
   y1="716.85437"
   x2="3043.1626"
   y2="869.86981">
				<stop
   offset="0"
   style="stop-color:#FFFFFF"
   id="stop22" />
				<stop
   offset="1"
   style="stop-color:#4D4D4D"
   id="stop24" />
			</linearGradient>
			<path
   id="XMLID_891_-3"
   fill="url(#XMLID_62_)"
   d="m 1340.4827,615.967 51.3,-57.3 c 2.3,1.6 6.823,-0.19258 7.9,2.5 h 0.8 v 0 c 0,0 7,-1.9 9.3,-4.4 2.3,-2.5 3.8,-13.09999 3.8,-9.5 v -0.8 0 c 0,0 -1.9,-7 -4.4,-9.3 -2.5,-2.3 -5.9,-3.8 -9.5,-3.8 h -0.8 c -3.7,0.2 -7,1.9 -9.3,4.4 -2.3,2.5 -3.8,5.9 -3.8,9.5 v 0.8 0 l 0.3,2.1 -49.8,55.8 h -50.3 l -153.9,153.9 v 166.7 h 10 v -162.6 l 148,-148 z m 55.3,-68.8 c 0,-1 0.4,-2 1.1,-2.7 0.7,-0.7 1.6,-1.2 2.6,-1.2 h 0.2 c 1,0 2,0.4 2.7,1.1 0.7,0.7 1.2,1.6 1.2,2.6 v 0.2 c 0,1 -0.4,2 -1.1,2.7 -0.7,0.7 -1.6,1.2 -2.6,1.2 h -0.2 c -1,0 -2,-0.4 -2.7,-1.1 -0.7,-0.7 -1.2,-1.6 -1.2,-2.6 l -5,0.3 5,-0.3 z"
   style="fill:#f1a403;fill-opacity:1"
   sodipodi:nodetypes="ccscssscssscsscscccccccccssssssssssscccs" /><path
   id="XMLID_1482_"
   fill="url(#XMLID_5_)"
   d="m 1131.9,733.2 v -23.5 c 0,-2.6 2.1,-4.7 4.7,-4.7 h 23.5 c 4.2,0 6.3,5.1 3.3,8 l -23.5,23.5 c -2.9,3 -8,0.9 -8,-3.3 z"
   style="fill:#bac7d6;;fill-opacity:1" />
			<linearGradient
   id="XMLID_6_"
   gradientUnits="userSpaceOnUse"
   x1="1035.829"
   y1="1407.9147"
   x2="2989.0242"
   y2="1560.9301">
				<stop
   offset="0"
   style="stop-color:#FFFFFF"
   id="stop28" />
				<stop
   offset="1"
   style="stop-color:#4D4D4D"
   id="stop30" />
			</linearGradient>
			<path
   id="XMLID_1483_"
   fill="url(#XMLID_6_)"
   d="m 125.5,1349.7 v -23.5 c 0,-2.6 2.1,-4.7 4.7,-4.7 h 23.5 c 4.2,0 6.3,5.1 3.3,8 l -23.5,23.5 c -2.9,2.9 -8,0.8 -8,-3.3 z"
   style="fill:#bac7d6;;fill-opacity:1" />
			<linearGradient
   id="XMLID_7_"
   gradientUnits="userSpaceOnUse"
   x1="1102.3176"
   y1="559.20673"
   x2="3055.5129"
   y2="712.22198">
				<stop
   offset="0"
   style="stop-color:#FFFFFF"
   id="stop34" />
				<stop
   offset="1"
   style="stop-color:#4D4D4D"
   id="stop36" />
			</linearGradient>
			<path
   id="XMLID_1484_"
   fill="url(#XMLID_7_)"
   d="m 1305.3,562 v 23.5 c 0,2.6 -2.1,4.7 -4.7,4.7 H 1277 c -4.2,0 -6.3,-5.1 -3.3,-8 l 23.5,-23.5 c 3,-2.9 8.1,-0.8 8.1,3.3 z"
   style="fill:#bac7d6;;fill-opacity:1" />
			<linearGradient
   id="XMLID_8_"
   gradientUnits="userSpaceOnUse"
   x1="1047.58"
   y1="1257.917"
   x2="3000.7751"
   y2="1410.9323">
				<stop
   offset="0"
   style="stop-color:#FFFFFF"
   id="stop40" />
				<stop
   offset="1"
   style="stop-color:#4D4D4D"
   id="stop42" />
			</linearGradient>
			<path
   id="XMLID_1485_"
   fill="url(#XMLID_8_)"
   d="m 776.7,1223.6 v 23.5 c 0,2.6 -2.1,4.7 -4.7,4.7 h -23.5 c -4.2,0 -6.3,-5.1 -3.3,-8 l 23.5,-23.5 c 2.9,-2.9 8,-0.8 8,3.3 z"
   style="fill:#bac7d6;;fill-opacity:1" />
			<linearGradient
   id="XMLID_9_"
   gradientUnits="userSpaceOnUse"
   x1="1039.6813"
   y1="1358.7411"
   x2="2992.8767"
   y2="1511.7563">
				<stop
   offset="0"
   style="stop-color:#FFFFFF"
   id="stop46" />
				<stop
   offset="1"
   style="stop-color:#4D4D4D"
   id="stop48" />
			</linearGradient>
			<path
   id="XMLID_1486_"
   fill="url(#XMLID_9_)"
   d="m 1189.5,1357.4 v 23.5 c 0,2.6 -2.1,4.7 -4.7,4.7 h -23.5 c -4.2,0 -6.3,-5.1 -3.3,-8 l 23.5,-23.5 c 3,-3 8,-0.9 8,3.3 z"
   style="fill:#bac7d6;;fill-opacity:1" />
			<linearGradient
   id="XMLID_10_"
   gradientUnits="userSpaceOnUse"
   x1="1110.9404"
   y1="449.13959"
   x2="3064.1357"
   y2="602.15479">
				<stop
   offset="0"
   style="stop-color:#FFFFFF"
   id="stop52" />
				<stop
   offset="1"
   style="stop-color:#4D4D4D"
   id="stop54" />
			</linearGradient>
			<path
   id="XMLID_1487_"
   fill="url(#XMLID_10_)"
   d="M 1308,451.5 V 475 c 0,2.6 -2.1,4.7 -4.7,4.7 h -23.5 c -4.2,0 -6.3,-5.1 -3.3,-8 l 23.5,-23.5 c 2.9,-3 8,-0.9 8,3.3 z"
   style="fill:#bac7d6;;fill-opacity:1" />
			<linearGradient
   id="XMLID_11_"
   gradientUnits="userSpaceOnUse"
   x1="1109.6462"
   y1="465.65948"
   x2="3062.8416"
   y2="618.67468">
				<stop
   offset="0"
   style="stop-color:#FFFFFF"
   id="stop58" />
				<stop
   offset="1"
   style="stop-color:#4D4D4D"
   id="stop60" />
			</linearGradient>
			<path
   id="XMLID_1488_"
   fill="url(#XMLID_11_)"
   d="m 1100.8,478 v -23.5 c 0,-2.6 2.1,-4.7 4.7,-4.7 h 23.5 c 4.2,0 6.3,5.1 3.3,8 l -23.5,23.5 c -3,3 -8,0.9 -8,-3.3 z"
   style="fill:#bac7d6;;fill-opacity:1" />
			<linearGradient
   id="XMLID_12_"
   gradientUnits="userSpaceOnUse"
   x1="1061.0237"
   y1="1086.3109"
   x2="3014.219"
   y2="1239.3263"
   xlink:href="#XMLID_13_">
				<stop
   offset="0"
   style="stop-color:#FFFFFF"
   id="stop64" />
				<stop
   offset="1"
   style="stop-color:#4D4D4D"
   id="stop66" />
			</linearGradient>
			<rect
   id="XMLID_1503_"
   x="947.09998"
   y="969.29999"
   fill="url(#XMLID_12_)"
   width="234.60001"
   height="234.60001"
   style="fill:#bac7d6;;fill-opacity:1" />
			<linearGradient
   id="XMLID_13_"
   gradientUnits="userSpaceOnUse"
   x1="1061.0237"
   y1="1086.3109"
   x2="3014.219"
   y2="1239.3262">
				<stop
   offset="0"
   style="stop-color:#FFFFFF"
   id="stop70" />
				<stop
   offset="1"
   style="stop-color:#4D4D4D"
   id="stop72" />
			</linearGradient>
			<path
   id="XMLID_1504_"
   fill="url(#XMLID_13_)"
   d="m 1181.7,1203.9 v -3.5 H 950.6 V 972.8 h 227.6 v 231.1 h 3.5 v -3.5 3.5 h 3.5 V 969.3 c 0,-0.9 -0.4,-1.8 -1,-2.5 -0.6,-0.7 -1.6,-1 -2.5,-1 H 947.1 c -0.9,0 -1.8,0.4 -2.5,1 -0.7,0.6 -1,1.6 -1,2.5 v 234.6 c 0,0.9 0.4,1.8 1,2.5 0.6,0.7 1.6,1 2.5,1 h 234.6 c 0.9,0 1.8,-0.4 2.5,-1 0.7,-0.6 1,-1.6 1,-2.5 z"
   style="fill:#bac7d6;;fill-opacity:1" />
			<linearGradient
   id="XMLID_14_"
   gradientUnits="userSpaceOnUse"
   x1="1070.6912"
   y1="962.90839"
   x2="3023.8865"
   y2="1115.9237">
				<stop
   offset="0"
   style="stop-color:#FFFFFF"
   id="stop76" />
				<stop
   offset="1"
   style="stop-color:#4D4D4D"
   id="stop78" />
			</linearGradient>
			
			<linearGradient
   id="XMLID_15_"
   gradientUnits="userSpaceOnUse"
   x1="1067.8706"
   y1="998.91241"
   x2="3021.0659"
   y2="1151.9277">
				<stop
   offset="0"
   style="stop-color:#FFFFFF"
   id="stop82" />
				<stop
   offset="1"
   style="stop-color:#4D4D4D"
   id="stop84" />
			</linearGradient>
			
			<linearGradient
   id="XMLID_16_"
   gradientUnits="userSpaceOnUse"
   x1="1065.05"
   y1="1034.9164"
   x2="3018.2454"
   y2="1187.9316">
				<stop
   offset="0"
   style="stop-color:#FFFFFF"
   id="stop88" />
				<stop
   offset="1"
   style="stop-color:#4D4D4D"
   id="stop90" />
			</linearGradient>
			
			<linearGradient
   id="XMLID_17_"
   gradientUnits="userSpaceOnUse"
   x1="1062.2295"
   y1="1070.9203"
   x2="3015.4248"
   y2="1223.9357">
				<stop
   offset="0"
   style="stop-color:#FFFFFF"
   id="stop94" />
				<stop
   offset="1"
   style="stop-color:#4D4D4D"
   id="stop96" />
			</linearGradient>
			
			<linearGradient
   id="XMLID_18_"
   gradientUnits="userSpaceOnUse"
   x1="1059.4088"
   y1="1106.9242"
   x2="3012.6042"
   y2="1259.9396">
				<stop
   offset="0"
   style="stop-color:#FFFFFF"
   id="stop100" />
				<stop
   offset="1"
   style="stop-color:#4D4D4D"
   id="stop102" />
			</linearGradient>
			
			<linearGradient
   id="XMLID_19_"
   gradientUnits="userSpaceOnUse"
   x1="1056.5883"
   y1="1142.9282"
   x2="3009.7837"
   y2="1295.9435">
				<stop
   offset="0"
   style="stop-color:#FFFFFF"
   id="stop106" />
				<stop
   offset="1"
   style="stop-color:#4D4D4D"
   id="stop108" />
			</linearGradient>
			<path
   id="XMLID_1510_"
   fill="url(#XMLID_19_)"
   d="m 1243.9,1167.9 h -33.3 c -3.9,0 -7.1,-3.2 -7.1,-7.1 v -9 c 0,-3.9 3.2,-7.1 7.1,-7.1 h 33.3 c 1.6,0 3.2,0.6 4.4,1.6 l 5.6,4.5 c 3.5,2.8 3.5,8.2 0,11 l -5.6,4.5 c -1.2,1 -2.8,1.6 -4.4,1.6 z"
   style="fill:#bac7d6;;fill-opacity:1" />
			<linearGradient
   id="XMLID_20_"
   gradientUnits="userSpaceOnUse"
   x1="1053.7677"
   y1="1178.9321"
   x2="3006.9629"
   y2="1331.9474">
				<stop
   offset="0"
   style="stop-color:#FFFFFF"
   id="stop112" />
				<stop
   offset="1"
   style="stop-color:#4D4D4D"
   id="stop114" />
			</linearGradient>
			<path
   id="XMLID_1511_"
   fill="url(#XMLID_20_)"
   d="m 1243.9,1204.1 h -33.3 c -3.9,0 -7.1,-3.2 -7.1,-7.1 v -9 c 0,-3.9 3.2,-7.1 7.1,-7.1 h 33.3 c 1.6,0 3.2,0.6 4.4,1.6 l 5.6,4.5 c 3.5,2.8 3.5,8.2 0,11 l -5.6,4.5 c -1.2,1 -2.8,1.6 -4.4,1.6 z"
   style="fill:#bac7d6;;fill-opacity:1" />
			<linearGradient
   id="XMLID_21_"
   gradientUnits="userSpaceOnUse"
   x1="1051.7716"
   y1="1204.4109"
   x2="3004.967"
   y2="1357.4261">
				<stop
   offset="0"
   style="stop-color:#FFFFFF"
   id="stop118" />
				<stop
   offset="1"
   style="stop-color:#4D4D4D"
   id="stop120" />
			</linearGradient>
			
			<linearGradient
   id="XMLID_22_"
   gradientUnits="userSpaceOnUse"
   x1="1054.5923"
   y1="1168.407"
   x2="3007.7876"
   y2="1321.4222">
				<stop
   offset="0"
   style="stop-color:#FFFFFF"
   id="stop124" />
				<stop
   offset="1"
   style="stop-color:#4D4D4D"
   id="stop126" />
			</linearGradient>
			
			<linearGradient
   id="XMLID_23_"
   gradientUnits="userSpaceOnUse"
   x1="1057.4128"
   y1="1132.403"
   x2="3010.6082"
   y2="1285.4183">
				<stop
   offset="0"
   style="stop-color:#FFFFFF"
   id="stop130" />
				<stop
   offset="1"
   style="stop-color:#4D4D4D"
   id="stop132" />
			</linearGradient>
			
			<linearGradient
   id="XMLID_24_"
   gradientUnits="userSpaceOnUse"
   x1="1060.2334"
   y1="1096.399"
   x2="3013.4287"
   y2="1249.4144">
				<stop
   offset="0"
   style="stop-color:#FFFFFF"
   id="stop136" />
				<stop
   offset="1"
   style="stop-color:#4D4D4D"
   id="stop138" />
			</linearGradient>
			<path
   id="XMLID_1515_"
   fill="url(#XMLID_24_)"
   d="m 883.4,1072.3 h 33.3 c 3.9,0 7.1,3.2 7.1,7.1 v 9 c 0,3.9 -3.2,7.1 -7.1,7.1 h -33.3 c -1.6,0 -3.2,-0.6 -4.4,-1.6 l -5.6,-4.5 c -3.5,-2.8 -3.5,-8.2 0,-11 l 5.6,-4.5 c 1.2,-1.1 2.8,-1.6 4.4,-1.6 z"
   style="fill:#bac7d6;;fill-opacity:1" />
			<linearGradient
   id="XMLID_25_"
   gradientUnits="userSpaceOnUse"
   x1="1063.054"
   y1="1060.3951"
   x2="3016.2493"
   y2="1213.4104">
				<stop
   offset="0"
   style="stop-color:#FFFFFF"
   id="stop142" />
				<stop
   offset="1"
   style="stop-color:#4D4D4D"
   id="stop144" />
			</linearGradient>
			
			<linearGradient
   id="XMLID_26_"
   gradientUnits="userSpaceOnUse"
   x1="1065.8746"
   y1="1024.3911"
   x2="3019.0698"
   y2="1177.4065">
				<stop
   offset="0"
   style="stop-color:#FFFFFF"
   id="stop148" />
				<stop
   offset="1"
   style="stop-color:#4D4D4D"
   id="stop150" />
			</linearGradient>
			
			<linearGradient
   id="XMLID_27_"
   gradientUnits="userSpaceOnUse"
   x1="1068.6952"
   y1="988.38721"
   x2="3021.8904"
   y2="1141.4025">
				<stop
   offset="0"
   style="stop-color:#FFFFFF"
   id="stop154" />
				<stop
   offset="1"
   style="stop-color:#4D4D4D"
   id="stop156" />
			</linearGradient>
			
			<linearGradient
   id="XMLID_28_"
   gradientUnits="userSpaceOnUse"
   x1="1048.8633"
   y1="1241.5353"
   x2="3002.0586"
   y2="1394.5505">
				<stop
   offset="0"
   style="stop-color:#FFFFFF"
   id="stop160" />
				<stop
   offset="1"
   style="stop-color:#4D4D4D"
   id="stop162" />
			</linearGradient>
			
			<linearGradient
   id="XMLID_29_"
   gradientUnits="userSpaceOnUse"
   x1="1048.6423"
   y1="1244.3558"
   x2="3001.8376"
   y2="1397.3711">
				<stop
   offset="0"
   style="stop-color:#FFFFFF"
   id="stop166" />
				<stop
   offset="1"
   style="stop-color:#4D4D4D"
   id="stop168" />
			</linearGradient>
			
			<linearGradient
   id="XMLID_30_"
   gradientUnits="userSpaceOnUse"
   x1="1048.4214"
   y1="1247.1764"
   x2="3001.6167"
   y2="1400.1917">
				<stop
   offset="0"
   style="stop-color:#FFFFFF"
   id="stop172" />
				<stop
   offset="1"
   style="stop-color:#4D4D4D"
   id="stop174" />
			</linearGradient>
			
			<linearGradient
   id="XMLID_31_"
   gradientUnits="userSpaceOnUse"
   x1="1048.2004"
   y1="1249.9969"
   x2="3001.3958"
   y2="1403.0123">
				<stop
   offset="0"
   style="stop-color:#FFFFFF"
   id="stop178" />
				<stop
   offset="1"
   style="stop-color:#4D4D4D"
   id="stop180" />
			</linearGradient>
			
			<linearGradient
   id="XMLID_32_"
   gradientUnits="userSpaceOnUse"
   x1="1047.9795"
   y1="1252.8176"
   x2="3001.1748"
   y2="1405.8329">
				<stop
   offset="0"
   style="stop-color:#FFFFFF"
   id="stop184" />
				<stop
   offset="1"
   style="stop-color:#4D4D4D"
   id="stop186" />
			</linearGradient>
			
			<linearGradient
   id="XMLID_33_"
   gradientUnits="userSpaceOnUse"
   x1="1047.7584"
   y1="1255.6382"
   x2="3000.9539"
   y2="1408.6534">
				<stop
   offset="0"
   style="stop-color:#FFFFFF"
   id="stop190" />
				<stop
   offset="1"
   style="stop-color:#4D4D4D"
   id="stop192" />
			</linearGradient>
			
			<linearGradient
   id="XMLID_34_"
   gradientUnits="userSpaceOnUse"
   x1="1047.5375"
   y1="1258.4587"
   x2="3000.7329"
   y2="1411.474">
				<stop
   offset="0"
   style="stop-color:#FFFFFF"
   id="stop196" />
				<stop
   offset="1"
   style="stop-color:#4D4D4D"
   id="stop198" />
			</linearGradient>
			
			<linearGradient
   id="XMLID_35_"
   gradientUnits="userSpaceOnUse"
   x1="1074.7506"
   y1="911.09192"
   x2="3027.9458"
   y2="1064.1072">
				<stop
   offset="0"
   style="stop-color:#FFFFFF"
   id="stop202" />
				<stop
   offset="1"
   style="stop-color:#4D4D4D"
   id="stop204" />
			</linearGradient>
			
			<linearGradient
   id="XMLID_36_"
   gradientUnits="userSpaceOnUse"
   x1="1074.5295"
   y1="913.91248"
   x2="3027.7249"
   y2="1066.9277">
				<stop
   offset="0"
   style="stop-color:#FFFFFF"
   id="stop208" />
				<stop
   offset="1"
   style="stop-color:#4D4D4D"
   id="stop210" />
			</linearGradient>
			<path
   id="XMLID_1527_"
   fill="url(#XMLID_36_)"
   d="M 1125.3,904.8 V 938 c 0,3.9 3.2,7.1 7.1,7.1 h 9 c 3.9,0 7.1,-3.2 7.1,-7.1 v -33.3 c 0,-1.6 -0.6,-3.2 -1.6,-4.4 l -4.5,-5.6 c -2.8,-3.5 -8.2,-3.5 -11,0 l -4.5,5.6 c -1.1,1.3 -1.6,2.9 -1.6,4.5 z"
   style="fill:#bac7d6;;fill-opacity:1" />
			<linearGradient
   id="XMLID_37_"
   gradientUnits="userSpaceOnUse"
   x1="1074.3086"
   y1="916.73309"
   x2="3027.5039"
   y2="1069.7484">
				<stop
   offset="0"
   style="stop-color:#FFFFFF"
   id="stop214" />
				<stop
   offset="1"
   style="stop-color:#4D4D4D"
   id="stop216" />
			</linearGradient>
			
			<linearGradient
   id="XMLID_38_"
   gradientUnits="userSpaceOnUse"
   x1="1074.0876"
   y1="919.55359"
   x2="3027.283"
   y2="1072.569">
				<stop
   offset="0"
   style="stop-color:#FFFFFF"
   id="stop220" />
				<stop
   offset="1"
   style="stop-color:#4D4D4D"
   id="stop222" />
			</linearGradient>
			
			<linearGradient
   id="XMLID_39_"
   gradientUnits="userSpaceOnUse"
   x1="1073.8667"
   y1="922.37433"
   x2="3027.062"
   y2="1075.3895">
				<stop
   offset="0"
   style="stop-color:#FFFFFF"
   id="stop226" />
				<stop
   offset="1"
   style="stop-color:#4D4D4D"
   id="stop228" />
			</linearGradient>
			
			<linearGradient
   id="XMLID_40_"
   gradientUnits="userSpaceOnUse"
   x1="1073.6458"
   y1="925.19482"
   x2="3026.8411"
   y2="1078.2101">
				<stop
   offset="0"
   style="stop-color:#FFFFFF"
   id="stop232" />
				<stop
   offset="1"
   style="stop-color:#4D4D4D"
   id="stop234" />
			</linearGradient>
			
			<linearGradient
   id="XMLID_41_"
   gradientUnits="userSpaceOnUse"
   x1="1073.4248"
   y1="928.01538"
   x2="3026.6201"
   y2="1081.0308">
				<stop
   offset="0"
   style="stop-color:#FFFFFF"
   id="stop238" />
				<stop
   offset="1"
   style="stop-color:#4D4D4D"
   id="stop240" />
			</linearGradient>
			
			<linearGradient
   id="XMLID_42_"
   gradientUnits="userSpaceOnUse"
   x1="1075.3835"
   y1="903.01233"
   x2="3028.5789"
   y2="1056.0276">
				<stop
   offset="0"
   style="stop-color:#FFFFFF"
   id="stop244" />
				<stop
   offset="1"
   style="stop-color:#4D4D4D"
   id="stop246" />
			</linearGradient>
			<path
   id="XMLID_1535_"
   fill="url(#XMLID_42_)"
   d="m 1198.2,935 v -40.3 c 0,-4.4 3.6,-8 8,-8 h 40.3 c 7.2,0 10.7,8.6 5.7,13.7 l -40.3,40.3 c -5.1,5 -13.7,1.4 -13.7,-5.7 z"
   style="fill:#bac7d6;;fill-opacity:1" />
			<linearGradient
   id="XMLID_43_"
   gradientUnits="userSpaceOnUse"
   x1="1049.1975"
   y1="1237.2698"
   x2="3002.3928"
   y2="1390.285">
				<stop
   offset="0"
   style="stop-color:#FFFFFF"
   id="stop250" />
				<stop
   offset="1"
   style="stop-color:#4D4D4D"
   id="stop252" />
			</linearGradient>
			<path
   id="XMLID_1536_"
   fill="url(#XMLID_43_)"
   d="m 1201.9,1271.6 v -40.3 c 0,-4.4 3.6,-8 8,-8 h 40.3 c 7.2,0 10.7,8.6 5.7,13.7 l -40.3,40.3 c -5,5 -13.7,1.4 -13.7,-5.7 z"
   style="fill:#bac7d6;;fill-opacity:1" />
			<linearGradient
   id="XMLID_44_"
   gradientUnits="userSpaceOnUse"
   x1="1047.2898"
   y1="1261.6213"
   x2="3000.4851"
   y2="1414.6366">
				<stop
   offset="0"
   style="stop-color:#FFFFFF"
   id="stop256" />
				<stop
   offset="1"
   style="stop-color:#4D4D4D"
   id="stop258" />
			</linearGradient>
			<path
   id="XMLID_1537_"
   fill="url(#XMLID_44_)"
   d="m 877.1,1223.3 h 40.3 c 4.4,0 8,3.6 8,8 v 40.3 c 0,7.2 -8.6,10.7 -13.7,5.7 L 871.4,1237 c -5,-5.1 -1.4,-13.7 5.7,-13.7 z"
   style="fill:#bac7d6;;fill-opacity:1" />
			<linearGradient
   id="XMLID_45_"
   gradientUnits="userSpaceOnUse"
   x1="1072.545"
   y1="939.245"
   x2="3025.7402"
   y2="1092.2603">
				<stop
   offset="0"
   style="stop-color:#FFFFFF"
   id="stop262" />
				<stop
   offset="1"
   style="stop-color:#4D4D4D"
   id="stop264" />
			</linearGradient>
			
			<linearGradient
   id="XMLID_46_"
   gradientUnits="userSpaceOnUse"
   x1="1083.8484"
   y1="794.96008"
   x2="3037.0437"
   y2="947.97552">
				<stop
   offset="0"
   style="stop-color:#FFFFFF"
   id="stop268" />
				<stop
   offset="1"
   style="stop-color:#4D4D4D"
   id="stop270" />
			</linearGradient>
			<circle
   id="XMLID_1555_"
   fill="url(#XMLID_46_)"
   cx="1240"
   cy="807.20001"
   r="11.7"
   style="fill:#bac7d6;;fill-opacity:1" />
			<linearGradient
   id="XMLID_47_"
   gradientUnits="userSpaceOnUse"
   x1="1051.8169"
   y1="1203.8342"
   x2="3005.0122"
   y2="1356.8495">
				<stop
   offset="0"
   style="stop-color:#FFFFFF"
   id="stop274" />
				<stop
   offset="1"
   style="stop-color:#4D4D4D"
   id="stop276" />
			</linearGradient>
			<circle
   id="XMLID_1556_"
   fill="url(#XMLID_47_)"
   cx="1299.7"
   cy="1223.3"
   r="11.7"
   style="fill:#bac7d6;;fill-opacity:1" />
			<linearGradient
   id="XMLID_48_"
   gradientUnits="userSpaceOnUse"
   x1="1049.6218"
   y1="1231.853"
   x2="3002.8171"
   y2="1384.8684">
				<stop
   offset="0"
   style="stop-color:#FFFFFF"
   id="stop280" />
				<stop
   offset="1"
   style="stop-color:#4D4D4D"
   id="stop282" />
			</linearGradient>
			<circle
   id="XMLID_1557_"
   fill="url(#XMLID_48_)"
   cx="1299.7"
   cy="1251.4"
   r="11.7"
   style="fill:#bac7d6;;fill-opacity:1" />
			<linearGradient
   id="XMLID_49_"
   gradientUnits="userSpaceOnUse"
   x1="1098.1981"
   y1="611.79108"
   x2="3051.3933"
   y2="764.8064">
				<stop
   offset="0"
   style="stop-color:#FFFFFF"
   id="stop286" />
				<stop
   offset="1"
   style="stop-color:#4D4D4D"
   id="stop288" />
			</linearGradient>
			<circle
   id="XMLID_1558_"
   fill="url(#XMLID_49_)"
   cx="962.70001"
   cy="601.20001"
   r="11.7"
   style="fill:#bac7d6;;fill-opacity:1" />
			<linearGradient
   id="XMLID_50_"
   gradientUnits="userSpaceOnUse"
   x1="1100.3907"
   y1="583.80188"
   x2="3053.5862"
   y2="736.81732">
				<stop
   offset="0"
   style="stop-color:#FFFFFF"
   id="stop292" />
				<stop
   offset="1"
   style="stop-color:#4D4D4D"
   id="stop294" />
			</linearGradient>
			<circle
   id="XMLID_1559_"
   fill="url(#XMLID_50_)"
   cx="991.90002"
   cy="575.29999"
   r="11.7"
   style="fill:#bac7d6;;fill-opacity:1" />
			<linearGradient
   id="XMLID_51_"
   gradientUnits="userSpaceOnUse"
   x1="1044.7384"
   y1="1294.1888"
   x2="2997.9336"
   y2="1447.2041">
				<stop
   offset="0"
   style="stop-color:#FFFFFF"
   id="stop298" />
				<stop
   offset="1"
   style="stop-color:#4D4D4D"
   id="stop300" />
			</linearGradient>
			<circle
   id="XMLID_1560_"
   fill="url(#XMLID_51_)"
   cx="837.20001"
   cy="1277.9"
   r="11.7"
   style="fill:#bac7d6;;fill-opacity:1" />
			<linearGradient
   id="XMLID_52_"
   gradientUnits="userSpaceOnUse"
   x1="1101.634"
   y1="567.93292"
   x2="3054.8293"
   y2="720.94818">
				<stop
   offset="0"
   style="stop-color:#FFFFFF"
   id="stop304" />
				<stop
   offset="1"
   style="stop-color:#4D4D4D"
   id="stop306" />
			</linearGradient>
			<circle
   id="XMLID_1561_"
   fill="url(#XMLID_52_)"
   cx="1386.9"
   cy="590.29999"
   r="11.7"
   style="fill:#bac7d6;;fill-opacity:1" />
			<linearGradient
   id="XMLID_53_"
   gradientUnits="userSpaceOnUse"
   x1="1098.8656"
   y1="603.27118"
   x2="3052.0608"
   y2="756.2865">
				<stop
   offset="0"
   style="stop-color:#FFFFFF"
   id="stop310" />
				<stop
   offset="1"
   style="stop-color:#4D4D4D"
   id="stop312" />
			</linearGradient>
			<circle
   id="XMLID_1562_"
   fill="url(#XMLID_53_)"
   cx="1386.9"
   cy="625.79999"
   r="11.7"
   style="fill:#bac7d6;;fill-opacity:1" />
			<linearGradient
   id="XMLID_54_"
   gradientUnits="userSpaceOnUse"
   x1="1083.6523"
   y1="797.46307"
   x2="3036.8477"
   y2="950.47852">
				<stop
   offset="0"
   style="stop-color:#FFFFFF"
   id="stop316" />
				<stop
   offset="1"
   style="stop-color:#4D4D4D"
   id="stop318" />
			</linearGradient>
			<circle
   id="XMLID_1563_"
   fill="url(#XMLID_54_)"
   cx="1207.9"
   cy="807.20001"
   r="11.7"
   style="fill:#bac7d6;;fill-opacity:1" />
			<linearGradient
   id="XMLID_55_"
   gradientUnits="userSpaceOnUse"
   x1="1050.0721"
   y1="1226.104"
   x2="3003.2676"
   y2="1379.1193">
				<stop
   offset="0"
   style="stop-color:#FFFFFF"
   id="stop322" />
				<stop
   offset="1"
   style="stop-color:#4D4D4D"
   id="stop324" />
			</linearGradient>
			<circle
   id="XMLID_1564_"
   fill="url(#XMLID_55_)"
   cx="456.39999"
   cy="1179.6"
   r="11.7"
   style="fill:#bac7d6;;fill-opacity:1" />
			<linearGradient
   id="XMLID_56_"
   gradientUnits="userSpaceOnUse"
   x1="1049.8761"
   y1="1228.6071"
   x2="3003.0715"
   y2="1381.6223">
				<stop
   offset="0"
   style="stop-color:#FFFFFF"
   id="stop328" />
				<stop
   offset="1"
   style="stop-color:#4D4D4D"
   id="stop330" />
			</linearGradient>
			<circle
   id="XMLID_1565_"
   fill="url(#XMLID_56_)"
   cx="424.20001"
   cy="1179.6"
   r="11.7"
   style="fill:#bac7d6;;fill-opacity:1" />
			<g
   id="XMLID_809_"
   style="fill:#f1a403;fill-opacity:1">
				<linearGradient
   id="XMLID_57_"
   gradientUnits="userSpaceOnUse"
   x1="1096.4458"
   y1="634.15863"
   x2="3049.6411"
   y2="787.17389">
					<stop
   offset="0"
   style="stop-color:#FFFFFF"
   id="stop334" />
					<stop
   offset="1"
   style="stop-color:#4D4D4D"
   id="stop336" />
				</linearGradient>
				<path
   id="XMLID_865_"
   fill="url(#XMLID_57_)"
   d="m 1136.9,359.8 c 0.2,3.7 1.9,7 4.4,9.3 1.3,1.2 2.8,2.2 4.5,2.8 v 89.3 L 950.7,656.5 v 259.6 h 10 V 660.6 L 1155.8,465.5 V 372 c 2,-0.8 3.7,-1.9 5.1,-3.4 2.3,-2.5 3.8,-5.9 3.8,-9.5 0,-0.3 0,-0.5 0,-0.8 v 0 c -0.2,-3.7 -1.9,-7 -4.4,-9.3 -2.5,-2.3 -5.9,-3.8 -9.5,-3.8 -0.3,0 -0.5,0 -0.8,0 -3.7,0.2 -7,1.9 -9.3,4.4 -2.3,2.5 -3.8,5.9 -3.8,9.5 0,0.2 0,0.5 0,0.7 z m 10,-0.8 c 0,-1 0.4,-2 1.1,-2.7 0.7,-0.7 1.6,-1.2 2.6,-1.2 h 0.2 c 1,0 2,0.4 2.7,1.1 0.7,0.7 1.2,1.6 1.2,2.6 v 0.2 c 0,1 -0.4,2 -1.1,2.7 -0.7,0.7 -1.6,1.2 -2.6,1.2 h -0.2 c -1,0 -2,-0.4 -2.7,-1.1 -0.7,-0.7 -1.2,-1.6 -1.2,-2.6 l -5,0.3 5,-0.3 z"
   style="fill:#f1a403;fill-opacity:1" />
				<linearGradient
   id="XMLID_58_"
   gradientUnits="userSpaceOnUse"
   x1="1093.9515"
   y1="665.99689"
   x2="3047.147"
   y2="819.01221">
					<stop
   offset="0"
   style="stop-color:#FFFFFF"
   id="stop340" />
					<stop
   offset="1"
   style="stop-color:#4D4D4D"
   id="stop342" />
				</linearGradient>
				<path
   id="XMLID_868_"
   fill="url(#XMLID_58_)"
   d="m 1010.3,438.3 c 0.2,3.7 1.9,7 4.4,9.3 1.3,1.2 2.8,2.2 4.5,2.8 V 491 L 911.1,599.1 v 260.1 h -9.4 V 888 h 28.7 v -5 -23.7 H 921 v -256 l 108.1,-108.1 v -44.7 c 2,-0.8 3.7,-1.9 5.1,-3.4 2.3,-2.5 3.8,-5.9 3.8,-9.5 0,-0.3 0,-0.5 0,-0.8 v 0 c -0.2,-3.7 -1.9,-7 -4.4,-9.3 -2.5,-2.3 -5.9,-3.8 -9.5,-3.8 -0.3,0 -0.5,0 -0.8,0 -3.7,0.2 -7,1.9 -9.3,4.4 -2.3,2.5 -3.8,5.9 -3.8,9.5 0,0.1 0.1,0.4 0.1,0.7 z m -98.6,431 h 8.7 v 8.7 h -8.7 z m 108.5,-431.9 c 0,-1 0.4,-2 1.1,-2.7 0.7,-0.7 1.6,-1.2 2.6,-1.2 h 0.2 c 1,0 2,0.4 2.7,1.1 0.7,0.7 1.2,1.6 1.2,2.6 v 0.2 c 0,1 -0.4,2 -1.1,2.7 -0.7,0.7 -1.6,1.2 -2.6,1.2 h -0.2 c -1,0 -2,-0.4 -2.7,-1.1 -0.7,-0.7 -1.2,-1.6 -1.2,-2.6 l -5,0.3 5,-0.3 z"
   style="fill:#f1a403;fill-opacity:1" />
				<linearGradient
   id="XMLID_59_"
   gradientUnits="userSpaceOnUse"
   x1="1096.6172"
   y1="631.97137"
   x2="3049.8125"
   y2="784.98682">
					<stop
   offset="0"
   style="stop-color:#FFFFFF"
   id="stop346" />
					<stop
   offset="1"
   style="stop-color:#4D4D4D"
   id="stop348" />
				</linearGradient>
				<path
   id="XMLID_872_"
   fill="url(#XMLID_59_)"
   d="m 1397.8,657.5 c 0.2,3.7 1.9,7 4.4,9.3 2.5,2.3 5.9,3.8 9.5,3.8 0.3,0 0.5,0 0.8,0 v 0 c 3.7,-0.2 7,-1.9 9.3,-4.4 2.3,-2.5 3.8,-5.9 3.8,-9.5 0,-0.3 0,-0.5 0,-0.8 v 0 c -0.2,-3.7 -1.9,-7 -4.4,-9.3 -2.5,-2.3 -5.9,-3.8 -9.5,-3.8 -0.3,0 -0.5,0 -0.8,0 -3.7,0.2 -7,1.9 -9.3,4.4 -2.3,2.5 -3.8,5.9 -3.8,9.5 0,0.2 0,0.5 0,0.8 z m 10,-0.8 c 0,-1 0.4,-2 1.1,-2.7 0.7,-0.7 1.6,-1.2 2.6,-1.2 h 0.2 c 1,0 2,0.4 2.7,1.1 0.7,0.7 1.2,1.6 1.2,2.6 v 0.2 c 0,1 -0.4,2 -1.1,2.7 -0.7,0.7 -1.6,1.2 -2.6,1.2 h -0.2 c -1,0 -2,-0.4 -2.7,-1.1 -0.7,-0.7 -1.2,-1.6 -1.2,-2.6 l -5,0.3 5,-0.3 z"
   style="fill:#f1a403;fill-opacity:1" />
				<linearGradient
   id="XMLID_60_"
   gradientUnits="userSpaceOnUse"
   x1="1097.2898"
   y1="623.38593"
   x2="3050.4851"
   y2="776.40118">
					<stop
   offset="0"
   style="stop-color:#FFFFFF"
   id="stop352" />
					<stop
   offset="1"
   style="stop-color:#4D4D4D"
   id="stop354" />
				</linearGradient>
				<path
   id="XMLID_885_"
   fill="url(#XMLID_60_)"
   d="m 1225.8,411.9 46.9,-46.9 c 2.1,1.3 4.6,2.1 7.3,2.1 0.3,0 0.5,0 0.8,0 v 0 c 3.7,-0.2 7,-1.9 9.3,-4.4 2.3,-2.5 3.8,-5.9 3.8,-9.5 0,-0.3 0,-0.5 0,-0.8 v 0 c -0.2,-3.7 -1.9,-7 -4.4,-9.3 -2.5,-2.3 -5.9,-3.8 -9.5,-3.8 -0.3,0 -0.5,0 -0.8,0 -3.7,0.2 -7,1.9 -9.3,4.4 -2.3,2.5 -3.8,5.9 -3.8,9.5 0,0.3 0,0.5 0,0.8 v 0 c 0.1,1 0.2,2 0.5,3 l -50.8,50.8 v 74.5 l -192.6,192.6 v 241.3 h 10 V 679 l 192.6,-192.6 z m 50.2,-58.8 c 0,-1 0.4,-2 1.1,-2.7 0.7,-0.7 1.6,-1.2 2.6,-1.2 h 0.2 c 1,0 2,0.4 2.7,1.1 0.7,0.7 1.2,1.6 1.2,2.6 v 0.2 c 0,1 -0.4,2 -1.1,2.7 -0.7,0.7 -1.6,1.2 -2.6,1.2 h -0.2 c -1,0 -2,-0.4 -2.7,-1.1 -0.7,-0.7 -1.2,-1.6 -1.2,-2.6 l -5,0.3 5,-0.3 z"
   style="fill:#f1a403;fill-opacity:1" />
				<linearGradient
   id="XMLID_61_"
   gradientUnits="userSpaceOnUse"
   x1="1094.349"
   y1="660.92322"
   x2="3047.5444"
   y2="813.93848">
					<stop
   offset="0"
   style="stop-color:#FFFFFF"
   id="stop358" />
					<stop
   offset="1"
   style="stop-color:#4D4D4D"
   id="stop360" />
				</linearGradient>
				<path
   id="XMLID_888_"
   fill="url(#XMLID_61_)"
   d="m 1341.2,496.3 v -44.5 h 9.6 v -5 -23.7 h -28.7 v 28.7 h 9.1 v 34.5 h -76.8 l -195,195 v 234.8 h 10 V 685.4 l 189.1,-189.1 z m -9.1,-63.2 h 8.7 v 8.7 h -8.7 z"
   style="fill:#f1a403;fill-opacity:1" />
				<linearGradient
   id="XMLID_62_"
   gradientUnits="userSpaceOnUse"
   x1="1092.5924"
   y1="683.34631"
   x2="3045.7876"
   y2="836.36157">
					<stop
   offset="0"
   style="stop-color:#FFFFFF"
   id="stop364" />
					<stop
   offset="1"
   style="stop-color:#4D4D4D"
   id="stop366" />
				</linearGradient>
				<path
   id="XMLID_891_"
   fill="url(#XMLID_62_)"
   d="m 1368.1,523.6 23.3,-23.3 c 2.3,1.6 5,2.5 7.9,2.5 0.3,0 0.5,0 0.8,0 v 0 c 3.7,-0.2 7,-1.9 9.3,-4.4 2.3,-2.5 3.8,-5.9 3.8,-9.5 0,-0.3 0,-0.5 0,-0.8 v 0 c -0.2,-3.7 -1.9,-7 -4.4,-9.3 -2.5,-2.3 -5.9,-3.8 -9.5,-3.8 -0.3,0 -0.5,0 -0.8,0 -3.7,0.2 -7,1.9 -9.3,4.4 -2.3,2.5 -3.8,5.9 -3.8,9.5 0,0.3 0,0.5 0,0.8 v 0 c 0,0.7 0.2,1.4 0.3,2.1 l -21.8,21.8 h -92.3 l -175.9,175.9 v 226.7 h 10 V 693.6 l 170,-170 z m 27.3,-34.8 c 0,-1 0.4,-2 1.1,-2.7 0.7,-0.7 1.6,-1.2 2.6,-1.2 h 0.2 c 1,0 2,0.4 2.7,1.1 0.7,0.7 1.2,1.6 1.2,2.6 v 0.2 c 0,1 -0.4,2 -1.1,2.7 -0.7,0.7 -1.6,1.2 -2.6,1.2 h -0.2 c -1,0 -2,-0.4 -2.7,-1.1 -0.7,-0.7 -1.2,-1.6 -1.2,-2.6 l -5,0.3 5,-0.3 z"
   style="fill:#f1a403;fill-opacity:1" />
				<linearGradient
   id="XMLID_63_"
   gradientUnits="userSpaceOnUse"
   x1="1112.6741"
   y1="427.00931"
   x2="3065.8694"
   y2="580.0246">
					<stop
   offset="0"
   style="stop-color:#FFFFFF"
   id="stop370" />
					<stop
   offset="1"
   style="stop-color:#4D4D4D"
   id="stop372" />
				</linearGradient>
				<path
   id="XMLID_892_"
   fill="url(#XMLID_63_)"
   d="m 986.9,916.1 h 10 V 670 L 1191.5,475.4 V 288.3 C 1216.1,263.8 1513.8,-34 1513.8,-34 l -7.1,-7.1 c 0,0 -315.9,315.9 -323.8,323.8 l -1.5,1.5 V 471.3 L 986.9,665.9 Z"
   style="fill:#f1a403;fill-opacity:1" />
				<linearGradient
   id="XMLID_64_"
   gradientUnits="userSpaceOnUse"
   x1="1084.9465"
   y1="780.94318"
   x2="3038.1418"
   y2="933.9585">
					<stop
   offset="0"
   style="stop-color:#FFFFFF"
   id="stop376" />
					<stop
   offset="1"
   style="stop-color:#4D4D4D"
   id="stop378" />
				</linearGradient>
				<path
   id="XMLID_895_"
   fill="url(#XMLID_64_)"
   d="m 1405.9,704.5 c 1.8,0.8 3.8,1.3 5.9,1.3 0.3,0 0.5,0 0.8,0 v 0 c 3.7,-0.2 7,-1.9 9.3,-4.4 2.3,-2.5 3.8,-5.9 3.8,-9.5 0,-0.3 0,-0.5 0,-0.8 v 0 c -0.2,-3.7 -1.9,-7 -4.4,-9.3 -2.5,-2.3 -5.9,-3.8 -9.5,-3.8 -0.3,0 -0.5,0 -0.8,0 -3.7,0.2 -7,1.9 -9.3,4.4 -2.3,2.5 -3.8,5.9 -3.8,9.5 0,0.3 0,0.5 0,0.8 v 0 c 0.1,1.6 0.5,3.2 1.1,4.6 l -76,76 h -130.7 l -24.1,24.1 v 118.7 h 10 V 801.5 l 18.2,-18.2 H 1327 Z m 1.9,-12.7 c 0,-1 0.4,-2 1.1,-2.7 0.7,-0.7 1.6,-1.2 2.6,-1.2 h 0.2 c 1,0 2,0.4 2.7,1.1 0.7,0.7 1.2,1.6 1.2,2.6 v 0.2 c 0,1 -0.4,2 -1.1,2.7 -0.7,0.7 -1.6,1.2 -2.6,1.2 h -0.2 c -1,0 -2,-0.4 -2.7,-1.1 -0.7,-0.7 -1.2,-1.6 -1.2,-2.6 l -5,0.3 5,-0.3 z"
   style="fill:#f1a403;fill-opacity:1" />
				<linearGradient
   id="XMLID_65_"
   gradientUnits="userSpaceOnUse"
   x1="1062.8961"
   y1="1062.4106"
   x2="3016.0913"
   y2="1215.4259">
					<stop
   offset="0"
   style="stop-color:#FFFFFF"
   id="stop382" />
					<stop
   offset="1"
   style="stop-color:#4D4D4D"
   id="stop384" />
				</linearGradient>
				<path
   id="XMLID_896_"
   style="fill:#f1a403;fill-opacity:1"
   d="m 1350.4,1151.3 h -98.1 v 10 h 98.1 54.8 85.1 l 96,-100.1 v -41.8 h -10 v 37.8 l -90.2,94.1 h -80.9 z" />
				<linearGradient
   id="XMLID_66_"
   gradientUnits="userSpaceOnUse"
   x1="1049.8611"
   y1="1228.7988"
   x2="3003.0564"
   y2="1381.8141">
					<stop
   offset="0"
   style="stop-color:#FFFFFF"
   id="stop388" />
					<stop
   offset="1"
   style="stop-color:#4D4D4D"
   id="stop390" />
				</linearGradient>
				<path
   id="XMLID_897_"
   fill="url(#XMLID_66_)"
   d="m 1333.8,1244.2 v -56.7 h -81.5 v 10 h 71.5 v 50.8 l 1.5,1.5 c 26.6,26.6 41.5,41.5 68.1,68 l 1.5,1.5 h 170.6 v -10 h -166.4 c -25.4,-25.1 -40.2,-39.9 -65.3,-65.1 z"
   style="fill:#f1a403;fill-opacity:1" />
				<linearGradient
   id="XMLID_67_"
   gradientUnits="userSpaceOnUse"
   x1="1037.9489"
   y1="1380.8556"
   x2="2991.144"
   y2="1533.8708">
					<stop
   offset="0"
   style="stop-color:#FFFFFF"
   id="stop394" />
					<stop
   offset="1"
   style="stop-color:#4D4D4D"
   id="stop396" />
				</linearGradient>
				<path
   id="XMLID_898_"
   style="fill:#f1a403;fill-opacity:1"
   d="m 1178.1,1267.3 h -10 v 52.1 l -51.4,51.4 H 755.2 v 112.5 h 10 v -102.5 h 355.6 l 57.3,-57.2 z" />
				<linearGradient
   id="XMLID_68_"
   gradientUnits="userSpaceOnUse"
   x1="1037.0526"
   y1="1392.2952"
   x2="2990.248"
   y2="1545.3105">
					<stop
   offset="0"
   style="stop-color:#FFFFFF"
   id="stop400" />
					<stop
   offset="1"
   style="stop-color:#4D4D4D"
   id="stop402" />
				</linearGradient>
				<path
   id="XMLID_899_"
   style="fill:#f1a403;fill-opacity:1"
   d="m 1141.8,1329 v -61.7 h -10 v 57.6 l -23.4,23.4 H 760.2 727.4 v 153 h 10 v -143 h 22.8 352.3 z" />
				<linearGradient
   id="XMLID_69_"
   gradientUnits="userSpaceOnUse"
   x1="1038.3453"
   y1="1375.7932"
   x2="2991.5408"
   y2="1528.8086">
					<stop
   offset="0"
   style="stop-color:#FFFFFF"
   id="stop406" />
					<stop
   offset="1"
   style="stop-color:#4D4D4D"
   id="stop408" />
				</linearGradient>
				<path
   id="XMLID_900_"
   style="fill:#f1a403;fill-opacity:1"
   d="m 1105.6,1323.6 v -51.4 h -10 v 47.3 l -8,8 H 762.9 730.3 l -117.3,117.3 7,7.1 114.4,-114.4 h 28.5 328.8 z" />
				<linearGradient
   id="XMLID_70_"
   gradientUnits="userSpaceOnUse"
   x1="1036.7673"
   y1="1395.9365"
   x2="2989.9626"
   y2="1548.9519">
					<stop
   offset="0"
   style="stop-color:#FFFFFF"
   id="stop412" />
					<stop
   offset="1"
   style="stop-color:#4D4D4D"
   id="stop414" />
				</linearGradient>
				<path
   id="XMLID_901_"
   style="fill:#f1a403;fill-opacity:1"
   d="M 950.7,1305.3 H 762.9 703.3 l -173.4,173.4 7,7.1 170.5,-170.5 h 55.5 306.5 v -45.8 h -10 v 35.8 h -26.2 v -35.8 h -10 v 35.8 h -26.3 v -33.1 h -10 v 33.1 h -26.2 v -33.1 h -10 z" />
				<linearGradient
   id="XMLID_71_"
   gradientUnits="userSpaceOnUse"
   x1="1040.2079"
   y1="1352.0194"
   x2="2993.4031"
   y2="1505.0347">
					<stop
   offset="0"
   style="stop-color:#FFFFFF"
   id="stop418" />
					<stop
   offset="1"
   style="stop-color:#4D4D4D"
   id="stop420" />
				</linearGradient>
				<path
   id="XMLID_902_"
   style="fill:#f1a403;fill-opacity:1"
   d="m 221.2,1512.1 162.2,-162.2 h 149.7 l 224.8,-224.8 h 120.4 v -10 H 753.8 L 529,1339.9 H 379.3 l -165.1,165.2 z" />
				<linearGradient
   id="XMLID_72_"
   gradientUnits="userSpaceOnUse"
   x1="1038.8761"
   y1="1369.0184"
   x2="2992.0715"
   y2="1522.0337">
					<stop
   offset="0"
   style="stop-color:#FFFFFF"
   id="stop424" />
					<stop
   offset="1"
   style="stop-color:#4D4D4D"
   id="stop426" />
				</linearGradient>
				<path
   id="XMLID_903_"
   fill="url(#XMLID_72_)"
   d="m 757.9,1161.1 h 120.4 v -10 0 H 753.8 l -1.5,1.5 c -6.8,6.8 -364.3,364.3 -364.3,364.3 l 7.1,7.1 c 0,0 337.1,-337.2 362.8,-362.9 z"
   style="fill:#f1a403;fill-opacity:1" />
				<linearGradient
   id="XMLID_73_"
   gradientUnits="userSpaceOnUse"
   x1="1038.3391"
   y1="1375.8737"
   x2="2991.5344"
   y2="1528.8889">
					<stop
   offset="0"
   style="stop-color:#FFFFFF"
   id="stop430" />
					<stop
   offset="1"
   style="stop-color:#4D4D4D"
   id="stop432" />
				</linearGradient>
				<path
   id="XMLID_904_"
   fill="url(#XMLID_73_)"
   d="m 710.9,1246.3 c 14.6,-14.7 26.7,-27 35.2,-35.9 4.3,-4.4 7.6,-8 10,-10.6 0.9,-1.1 1.7,-1.9 2.4,-2.7 h 119.9 v -10 0 H 750.9 v 3.5 c -0.5,0.6 -1.2,1.4 -2.1,2.4 -4.1,4.5 -12,12.8 -22.7,23.7 -37.3,38.2 -108.4,108.7 -170.1,169.8 -30.8,30.5 -59.4,58.6 -80.2,79.1 -10.4,10.2 -18.9,18.6 -24.7,24.4 -2.9,2.9 -5.2,5.1 -6.8,6.7 -1.6,1.5 -2.4,2.3 -2.4,2.3 l 7,7.1 c 0,0 77.6,-76.3 155.2,-153.2 38.9,-38.6 77.7,-77.3 106.8,-106.6 z"
   style="fill:#f1a403;fill-opacity:1" />
				<linearGradient
   id="XMLID_74_"
   gradientUnits="userSpaceOnUse"
   x1="1078.4739"
   y1="863.56427"
   x2="3031.6692"
   y2="1016.5796">
					<stop
   offset="0"
   style="stop-color:#FFFFFF"
   id="stop436" />
					<stop
   offset="1"
   style="stop-color:#4D4D4D"
   id="stop438" />
				</linearGradient>
				<path
   id="XMLID_905_"
   style="fill:#f1a403;fill-opacity:1"
   d="m 1291.1,980.2 142,-142 h 43 v -47.4 h -10 v 37.4 H 1429 l -142,142 h -47 v 10 z" />
				<linearGradient
   id="XMLID_75_"
   gradientUnits="userSpaceOnUse"
   x1="1078.8477"
   y1="858.79449"
   x2="3032.043"
   y2="1011.8098">
					<stop
   offset="0"
   style="stop-color:#FFFFFF"
   id="stop442" />
					<stop
   offset="1"
   style="stop-color:#4D4D4D"
   id="stop444" />
				</linearGradient>
				<path
   id="XMLID_906_"
   style="fill:#f1a403;fill-opacity:1"
   d="m 1502.1,867.8 v -80.4 l 32.2,-32.2 -7.1,-7 -35.1,35.1 v 74.5 H 1438 l -148.6,148.6 h -59.3 v 10 h 63.5 l 148.6,-148.6 z" />
				<linearGradient
   id="XMLID_76_"
   gradientUnits="userSpaceOnUse"
   x1="1075.5331"
   y1="901.1037"
   x2="3028.7283"
   y2="1054.119">
					<stop
   offset="0"
   style="stop-color:#FFFFFF"
   id="stop448" />
					<stop
   offset="1"
   style="stop-color:#4D4D4D"
   id="stop450" />
				</linearGradient>
				<path
   id="XMLID_907_"
   style="fill:#f1a403;fill-opacity:1"
   d="m 1646.5,842.6 v -35.4 h -10 v 25.4 H 1518.2 V 882 h -70.6 L 1287,1042.6 h -47 v 10 h 51.1 L 1451.8,892 h 76.4 v -49.4 z" />
				<linearGradient
   id="XMLID_77_"
   gradientUnits="userSpaceOnUse"
   x1="1067.4534"
   y1="1004.2393"
   x2="3020.6487"
   y2="1157.2545">
					<stop
   offset="0"
   style="stop-color:#FFFFFF"
   id="stop454" />
					<stop
   offset="1"
   style="stop-color:#4D4D4D"
   id="stop456" />
				</linearGradient>
				<path
   id="XMLID_908_"
   style="fill:#f1a403;fill-opacity:1"
   d="m 1497,1125.1 39,-39 V 948 h 50.1 V 938 H 1526 v 144 l -33.1,33.1 h -247.1 v 10 z" />
				<linearGradient
   id="XMLID_78_"
   gradientUnits="userSpaceOnUse"
   x1="1116.8384"
   y1="373.85391"
   x2="3070.0337"
   y2="526.86908">
					<stop
   offset="0"
   style="stop-color:#FFFFFF"
   id="stop460" />
					<stop
   offset="1"
   style="stop-color:#4D4D4D"
   id="stop462" />
				</linearGradient>
				<path
   id="XMLID_911_"
   fill="url(#XMLID_78_)"
   d="m 1322.1,379.6 v 28.7 h 28.7 v -5 -4.4 c 31,0 193.2,0 193.2,0 v -10 c 0,0 -162.3,0 -193.2,0 v -9.4 h -28.7 z m 10,10 h 8.7 v 8.7 h -8.7 z"
   style="fill:#f1a403;fill-opacity:1" />
				<linearGradient
   id="XMLID_79_"
   gradientUnits="userSpaceOnUse"
   x1="1093.6448"
   y1="669.91351"
   x2="3046.8401"
   y2="822.92877">
					<stop
   offset="0"
   style="stop-color:#FFFFFF"
   id="stop466" />
					<stop
   offset="1"
   style="stop-color:#4D4D4D"
   id="stop468" />
				</linearGradient>
				<path
   id="XMLID_915_"
   fill="url(#XMLID_79_)"
   d="m 892.7,883 v -23.7 h -9.4 V 577.4 l 82.9,-82.9 v -44 c 2,-0.8 3.7,-1.9 5.1,-3.4 2.3,-2.5 3.8,-5.9 3.8,-9.5 0,-0.3 0,-0.5 0,-0.8 -0.2,-3.7 -1.9,-7 -4.4,-9.3 -2.5,-2.3 -5.9,-3.8 -9.5,-3.8 -0.3,0 -0.5,0 -0.8,0 -3.7,0.2 -7,1.9 -9.3,4.4 -2.3,2.5 -3.8,5.9 -3.8,9.5 0,0.3 0,0.5 0,0.8 v 0 c 0.2,3.7 1.9,7 4.4,9.3 1.3,1.2 2.8,2.2 4.5,2.8 v 39.9 l -82.9,82.9 v 286 H 864 V 888 h 28.7 z m 64.7,-445.6 c 0,-1 0.4,-2 1.1,-2.7 0.7,-0.7 1.6,-1.2 2.6,-1.2 h 0.2 c 1,0 2,0.4 2.7,1.1 0.7,0.7 1.2,1.6 1.2,2.6 v 0.2 c 0,1 -0.4,2 -1.1,2.7 -0.7,0.7 -1.6,1.2 -2.6,1.2 h -0.2 c -1,0 -2,-0.4 -2.7,-1.1 -0.7,-0.7 -1.2,-1.6 -1.2,-2.6 l -5,0.3 5,-0.3 z M 874,869.3 h 8.7 V 878 H 874 Z"
   style="fill:#f1a403;fill-opacity:1" />
				<linearGradient
   id="XMLID_80_"
   gradientUnits="userSpaceOnUse"
   x1="1053.9413"
   y1="1176.7158"
   x2="3007.1367"
   y2="1329.7311">
					<stop
   offset="0"
   style="stop-color:#FFFFFF"
   id="stop472" />
					<stop
   offset="1"
   style="stop-color:#4D4D4D"
   id="stop474" />
				</linearGradient>
				<path
   id="XMLID_919_"
   fill="url(#XMLID_80_)"
   d="m 539.9,1254.4 c 2.5,2.3 5.9,3.8 9.5,3.8 0.3,0 0.5,0 0.8,0 v 0 c 3.7,-0.2 7,-1.9 9.3,-4.4 1.3,-1.4 2.4,-3.2 3,-5 h 6.4 l 33.4,-33.4 v 0 c 63.3,-63.3 99.5,-99.5 162.8,-162.8 h 122.7 v -10 0 H 761 l -1.5,1.5 c -64.7,64.7 -101,101 -165.7,165.7 l -1.5,1.5 v 0 l -27.5,27.5 h -2.6 c -0.8,-1.8 -1.9,-3.3 -3.2,-4.6 -2.5,-2.3 -5.9,-3.8 -9.5,-3.8 -0.3,0 -0.5,0 -0.8,0 -3.7,0.2 -7,1.9 -9.3,4.4 -2.3,2.5 -3.8,5.9 -3.8,9.5 0,0.3 0,0.5 0,0.8 v 0 c 0.2,3.7 1.8,7 4.3,9.3 z m 5.7,-10.1 c 0,-1 0.4,-2 1.1,-2.7 0.7,-0.7 1.6,-1.2 2.6,-1.2 h 0.2 c 1,0 2,0.4 2.7,1.1 0.7,0.7 1.2,1.6 1.2,2.6 v 0.2 c 0,1 -0.4,2 -1.1,2.7 -0.7,0.7 -1.6,1.2 -2.6,1.2 h -0.2 c -1,0 -2,-0.4 -2.7,-1.1 -0.7,-0.7 -1.2,-1.6 -1.2,-2.6 l -5,0.3 5,-0.3 z"
   style="fill:#f1a403;fill-opacity:1" />
				<linearGradient
   id="XMLID_81_"
   gradientUnits="userSpaceOnUse"
   x1="1047.8734"
   y1="1254.1714"
   x2="3001.0686"
   y2="1407.1866">
					<stop
   offset="0"
   style="stop-color:#FFFFFF"
   id="stop478" />
					<stop
   offset="1"
   style="stop-color:#4D4D4D"
   id="stop480" />
				</linearGradient>
				<path
   id="XMLID_920_"
   style="fill:#f1a403;fill-opacity:1"
   d="m 13.4,1403.3 7.1,7.1 101.9,-101.9 h 378.2 l 30.2,-30.2 v -54 l 207.9,-207.9 h 168 v -10 H 734.6 l -213.8,213.8 v 54 l -24.3,24.3 H 118.3 Z" />
				<linearGradient
   id="XMLID_82_"
   gradientUnits="userSpaceOnUse"
   x1="1043.3457"
   y1="1311.9653"
   x2="2996.541"
   y2="1464.9806">
					<stop
   offset="0"
   style="stop-color:#FFFFFF"
   id="stop484" />
					<stop
   offset="1"
   style="stop-color:#4D4D4D"
   id="stop486" />
				</linearGradient>
				<path
   id="XMLID_928_"
   fill="url(#XMLID_82_)"
   d="m 313.6,1249.8 h 175.5 c 0.8,1.8 1.9,3.3 3.2,4.6 2.5,2.3 5.9,3.8 9.5,3.8 0.3,0 0.5,0 0.8,0 v 0 c 3.7,-0.2 7,-1.9 9.3,-4.4 2.3,-2.5 3.8,-5.9 3.8,-9.5 0,-0.3 0,-0.5 0,-0.8 -0.2,-3.7 -1.9,-7 -4.4,-9.3 -2.5,-2.3 -5.9,-3.8 -9.5,-3.8 -0.3,0 -0.5,0 -0.8,0 -3.7,0.2 -7,1.9 -9.3,4.4 -1.3,1.4 -2.4,3.2 -3,5 H 309.4 l -1.5,1.5 c -9,9 -14.3,14.3 -22.8,22.8 -3.3,0.4 -6.2,2 -8.4,4.3 -2.3,2.5 -3.8,5.9 -3.8,9.5 0,0.3 0,0.5 0,0.8 v 0 c 0.2,3.7 1.9,7 4.4,9.3 2.5,2.3 5.9,3.8 9.5,3.8 0.3,0 0.5,0 0.8,0 v 0 c 3.7,-0.2 7,-1.9 9.3,-4.4 2.3,-2.5 3.8,-5.9 3.8,-9.5 0,-0.3 0,-0.5 0,-0.8 -0.2,-3.7 -1.9,-7 -4.4,-9.3 -0.1,-0.1 -0.3,-0.3 -0.4,-0.4 6.1,-6 10.9,-10.8 17.7,-17.6 z m 185.4,-8.2 c 0.7,-0.7 1.6,-1.2 2.6,-1.2 h 0.2 c 1,0 2,0.4 2.7,1.1 0.7,0.7 1.2,1.6 1.2,2.6 v 0.2 c 0,1 -0.4,2 -1.1,2.7 -0.7,0.7 -1.6,1.2 -2.6,1.2 h -0.2 c -1,0 -2,-0.4 -2.7,-1.1 -0.7,-0.7 -1.2,-1.6 -1.2,-2.6 l -5,0.3 5,-0.3 v -0.2 c 0,-1 0.4,-1.9 1.1,-2.7 z m -209.3,39 c -0.7,0.7 -1.6,1.2 -2.6,1.2 h -0.2 c -1,0 -2,-0.4 -2.7,-1.1 -0.7,-0.7 -1.2,-1.6 -1.2,-2.6 l -5,0.3 5,-0.3 v -0.2 c 0,-1 0.4,-2 1.1,-2.7 0.7,-0.7 1.6,-1.2 2.6,-1.2 h 0.2 c 1,0 2,0.4 2.7,1.1 0.7,0.7 1.2,1.6 1.2,2.6 v 0.2 c 0,1.1 -0.4,2 -1.1,2.7 z"
   style="fill:#f1a403;fill-opacity:1" />
				<linearGradient
   id="XMLID_83_"
   gradientUnits="userSpaceOnUse"
   x1="1031.1969"
   y1="1467.0422"
   x2="2984.3921"
   y2="1620.0576">
					<stop
   offset="0"
   style="stop-color:#FFFFFF"
   id="stop490" />
					<stop
   offset="1"
   style="stop-color:#4D4D4D"
   id="stop492" />
				</linearGradient>
				<path
   id="XMLID_932_"
   fill="url(#XMLID_83_)"
   d="m 291.1,1376.1 1.3,-1.4 v -30 c 1.8,-0.8 3.3,-1.9 4.6,-3.2 2.3,-2.5 3.8,-5.9 3.8,-9.5 0,-0.3 0,-0.5 0,-0.8 -0.2,-3.7 -1.9,-7 -4.4,-9.3 -2.5,-2.3 -5.9,-3.8 -9.5,-3.8 -0.3,0 -0.5,0 -0.8,0 v 0 c -3.7,0.2 -7,1.9 -9.3,4.4 -2.3,2.5 -3.8,5.9 -3.8,9.5 0,0.3 0,0.5 0,0.8 v 0 c 0.2,3.7 1.9,7 4.4,9.3 1.4,1.3 3.2,2.4 5,3 v 25.7 c -5.9,6.5 -31.1,34.1 -56.1,60.2 -12.6,13.2 -25.1,25.9 -34.9,35.3 -4.9,4.7 -9.2,8.6 -12.4,11.1 -1.6,1.3 -2.9,2.3 -3.8,2.8 -0.4,0.3 -0.8,0.4 -0.9,0.5 v 0 l 0.2,0.5 0.7,2.2 v 1.3 l 1.3,-3.8 -1.5,4.2 3.1,-3.1 -7.1,7.1 c 0.6,0.6 1.4,1.1 2.1,1.3 0.7,0.3 1.4,0.3 2,0.3 0.8,0 1.3,-0.1 1.9,-0.3 1,-0.3 1.7,-0.7 2.5,-1.1 1.5,-0.8 3,-1.9 4.7,-3.3 3.3,-2.6 7.3,-6.1 11.9,-10.5 8.1,-7.6 18,-17.6 28.5,-28.4 31.2,-32.1 66.5,-71 66.5,-71 z m -8.1,-44.2 c 0,-1 0.4,-2 1.1,-2.7 0.7,-0.7 1.6,-1.2 2.6,-1.2 v 0 h 0.2 c 1,0 2,0.4 2.7,1.1 0.7,0.7 1.2,1.6 1.2,2.6 v 0.2 c 0,1 -0.4,2 -1.1,2.7 -0.7,0.7 -1.6,1.2 -2.6,1.2 h -0.2 c -1,0 -2,-0.4 -2.7,-1.1 -0.7,-0.7 -1.2,-1.6 -1.2,-2.6 l -5,0.3 5,-0.3 z"
   style="fill:#f1a403;fill-opacity:1" />
				<linearGradient
   id="XMLID_84_"
   gradientUnits="userSpaceOnUse"
   x1="1030.0287"
   y1="1481.9532"
   x2="2983.2241"
   y2="1634.9685">
					<stop
   offset="0"
   style="stop-color:#FFFFFF"
   id="stop496" />
					<stop
   offset="1"
   style="stop-color:#4D4D4D"
   id="stop498" />
				</linearGradient>
				<path
   id="XMLID_935_"
   fill="url(#XMLID_84_)"
   d="m 436.4,1382.2 c 2,-0.8 3.7,-1.9 5.1,-3.4 2.3,-2.5 3.8,-5.9 3.8,-9.5 0,-0.3 0,-0.5 0,-0.8 -0.2,-3.7 -1.9,-7 -4.4,-9.3 -2.5,-2.3 -5.9,-3.8 -9.5,-3.8 -0.3,0 -0.5,0 -0.8,0 -3.7,0.2 -7,1.9 -9.3,4.4 -2.3,2.5 -3.8,5.9 -3.8,9.5 0,0.3 0,0.5 0,0.8 v 0 c 0.2,3.7 1.9,7 4.4,9.3 1.3,1.2 2.8,2.2 4.5,2.8 v 15.7 l -102.1,102.1 7.1,7.1 105,-105 z m -8.9,-13 c 0,-1 0.4,-2 1.1,-2.7 0.7,-0.7 1.6,-1.2 2.6,-1.2 h 0.2 c 1,0 2,0.4 2.7,1.1 0.7,0.7 1.2,1.6 1.2,2.6 v 0.2 c 0,1 -0.4,2 -1.1,2.7 -0.7,0.7 -1.6,1.2 -2.6,1.2 h -0.2 c -1,0 -2,-0.4 -2.7,-1.1 -0.7,-0.7 -1.2,-1.6 -1.2,-2.6 l -5,0.3 5,-0.3 z"
   style="fill:#f1a403;fill-opacity:1" />
				<linearGradient
   id="XMLID_85_"
   gradientUnits="userSpaceOnUse"
   x1="1049.6675"
   y1="1231.2708"
   x2="3002.8628"
   y2="1384.286">
					<stop
   offset="0"
   style="stop-color:#FFFFFF"
   id="stop502" />
					<stop
   offset="1"
   style="stop-color:#4D4D4D"
   id="stop504" />
				</linearGradient>
				<path
   id="XMLID_936_"
   style="fill:#f1a403;fill-opacity:1"
   d="M 160.5,1206.6 H 466 L 692.4,980.2 h 195.5 v -10 H 688.3 L 461.8,1196.6 H 156.4 l -191.6,191.6 7.1,7.1 z"
   transform="matrix(1.0019356,0,0,1.074842,6.5516682,-72.611733)" />
				<linearGradient
   id="XMLID_86_"
   gradientUnits="userSpaceOnUse"
   x1="1065.9521"
   y1="1023.4009"
   x2="3019.1475"
   y2="1176.4163">
					<stop
   offset="0"
   style="stop-color:#FFFFFF"
   id="stop508" />
					<stop
   offset="1"
   style="stop-color:#4D4D4D"
   id="stop510" />
				</linearGradient>
				<path
   id="XMLID_937_"
   style="fill:#f1a403;fill-opacity:1"
   d="m 1230.1,1078.9 v 9.9 h 192.6 l 77.5,-77.5 -7,-7 -74.6,74.6 z" />
				<linearGradient
   id="XMLID_87_"
   gradientUnits="userSpaceOnUse"
   x1="1120.7389"
   y1="324.06421"
   x2="3073.9343"
   y2="477.0795">
					<stop
   offset="0"
   style="stop-color:#FFFFFF"
   id="stop514" />
					<stop
   offset="1"
   style="stop-color:#4D4D4D"
   id="stop516" />
				</linearGradient>
				<path
   id="XMLID_940_"
   fill="url(#XMLID_87_)"
   d="m 1349.2,347.6 c -0.8,-1.8 -1.9,-3.3 -3.2,-4.6 -2.5,-2.3 -5.9,-3.8 -9.5,-3.8 -0.3,0 -0.5,0 -0.8,0 -3.7,0.2 -7,1.9 -9.3,4.4 -2.3,2.5 -3.8,5.9 -3.8,9.5 0,0.3 0,0.5 0,0.8 v 0 c 0.2,3.7 1.9,7 4.4,9.3 2.5,2.3 5.9,3.8 9.5,3.8 0.3,0 0.5,0 0.8,0 v 0 c 3.7,-0.2 7,-1.9 9.3,-4.4 1.3,-1.4 2.4,-3.1 3,-5 l 411.8,0.5 v -10 z m -9.9,8.2 c -0.7,0.7 -1.6,1.2 -2.6,1.2 h -0.2 c -1,0 -2,-0.4 -2.7,-1.1 -0.7,-0.7 -1.2,-1.6 -1.2,-2.6 l -5,0.3 5,-0.3 v -0.2 c 0,-1 0.4,-2 1.1,-2.7 0.7,-0.7 1.6,-1.2 2.6,-1.2 h 0.2 c 1,0 2,0.4 2.7,1.1 0.7,0.7 1.2,1.6 1.2,2.6 v 0.2 c -0.1,1.1 -0.5,2 -1.1,2.7 z"
   style="fill:#f1a403;fill-opacity:1" />
			</g>
		<path
   id="XMLID_1507_"
   fill="url(#XMLID_16_)"
   d="m 1243.9,1059.2 h -33.3 c -3.9,0 -7.1,-3.2 -7.1,-7.1 v -9 c 0,-3.9 3.2,-7.1 7.1,-7.1 h 33.3 c 1.6,0 3.2,0.6 4.4,1.6 l 5.6,4.5 c 3.5,2.8 3.5,8.2 0,11 l -5.6,4.5 c -1.2,1 -2.8,1.6 -4.4,1.6 z"
   style="fill:#bac7d6;;fill-opacity:1" /><path
   id="XMLID_1506_"
   fill="url(#XMLID_15_)"
   d="m 1243.9,1023 h -33.3 c -3.9,0 -7.1,-3.2 -7.1,-7.1 v -9 c 0,-3.9 3.2,-7.1 7.1,-7.1 h 33.3 c 1.6,0 3.2,0.6 4.4,1.6 l 5.6,4.5 c 3.5,2.8 3.5,8.2 0,11 l -5.6,4.5 c -1.2,1 -2.8,1.6 -4.4,1.6 z"
   style="fill:#bac7d6;;fill-opacity:1" /><path
   id="XMLID_1505_"
   fill="url(#XMLID_14_)"
   d="m 1243.9,986.7 h -33.3 c -3.9,0 -7.1,-3.2 -7.1,-7.1 v -9 c 0,-3.9 3.2,-7.1 7.1,-7.1 h 33.3 c 1.6,0 3.2,0.6 4.4,1.6 l 5.6,4.5 c 3.5,2.8 3.5,8.2 0,11 l -5.6,4.5 c -1.2,1.1 -2.8,1.6 -4.4,1.6 z"
   style="fill:#bac7d6;;fill-opacity:1" /><path
   id="XMLID_1508_"
   fill="url(#XMLID_17_)"
   d="m 1243.9,1095.4 h -33.3 c -3.9,0 -7.1,-3.2 -7.1,-7.1 v -9 c 0,-3.9 3.2,-7.1 7.1,-7.1 h 33.3 c 1.6,0 3.2,0.6 4.4,1.6 l 5.6,4.5 c 3.5,2.8 3.5,8.2 0,11 l -5.6,4.5 c -1.2,1.1 -2.8,1.6 -4.4,1.6 z"
   style="fill:#bac7d6;;fill-opacity:1" /><path
   id="XMLID_1526_"
   fill="url(#XMLID_35_)"
   d="M 1161.5,904.8 V 938 c 0,3.9 3.2,7.1 7.1,7.1 h 9 c 3.9,0 7.1,-3.2 7.1,-7.1 v -33.3 c 0,-1.6 -0.6,-3.2 -1.6,-4.4 l -4.5,-5.6 c -2.8,-3.5 -8.2,-3.5 -11,0 l -4.5,5.6 c -1,1.3 -1.6,2.9 -1.6,4.5 z"
   style="fill:#bac7d6;;fill-opacity:1" /><path
   id="XMLID_1529_"
   fill="url(#XMLID_38_)"
   d="M 1052.8,904.8 V 938 c 0,3.9 3.2,7.1 7.1,7.1 h 9 c 3.9,0 7.1,-3.2 7.1,-7.1 v -33.3 c 0,-1.6 -0.6,-3.2 -1.6,-4.4 l -4.5,-5.6 c -2.8,-3.5 -8.2,-3.5 -11,0 l -4.5,5.6 c -1,1.3 -1.6,2.9 -1.6,4.5 z"
   style="fill:#bac7d6;;fill-opacity:1" /><path
   id="XMLID_1530_"
   fill="url(#XMLID_39_)"
   d="M 1016.6,904.8 V 938 c 0,3.9 3.2,7.1 7.1,7.1 h 9 c 3.9,0 7.1,-3.2 7.1,-7.1 v -33.3 c 0,-1.6 -0.6,-3.2 -1.6,-4.4 l -4.5,-5.6 c -2.8,-3.5 -8.2,-3.5 -11,0 l -4.5,5.6 c -1,1.3 -1.6,2.9 -1.6,4.5 z"
   style="fill:#bac7d6;;fill-opacity:1" /><path
   id="XMLID_1531_"
   fill="url(#XMLID_40_)"
   d="M 980.4,904.8 V 938 c 0,3.9 3.2,7.1 7.1,7.1 h 9 c 3.9,0 7.1,-3.2 7.1,-7.1 v -33.3 c 0,-1.6 -0.6,-3.2 -1.6,-4.4 l -4.5,-5.6 c -2.8,-3.5 -8.2,-3.5 -11,0 l -4.5,5.6 c -1.1,1.3 -1.6,2.9 -1.6,4.5 z"
   style="fill:#bac7d6;;fill-opacity:1" /><path
   id="XMLID_1532_"
   fill="url(#XMLID_41_)"
   d="M 944.2,904.8 V 938 c 0,3.9 3.2,7.1 7.1,7.1 h 9 c 3.9,0 7.1,-3.2 7.1,-7.1 v -33.3 c 0,-1.6 -0.6,-3.2 -1.6,-4.4 l -4.5,-5.6 c -2.8,-3.5 -8.2,-3.5 -11,0 l -4.5,5.6 c -1.1,1.3 -1.6,2.9 -1.6,4.5 z"
   style="fill:#bac7d6;;fill-opacity:1" /><path
   id="XMLID_1516_"
   fill="url(#XMLID_25_)"
   d="m 883.4,1036.1 h 33.3 c 3.9,0 7.1,3.2 7.1,7.1 v 9 c 0,3.9 -3.2,7.1 -7.1,7.1 h -33.3 c -1.6,0 -3.2,-0.6 -4.4,-1.6 l -5.6,-4.5 c -3.5,-2.8 -3.5,-8.2 0,-11 l 5.6,-4.5 c 1.2,-1.1 2.8,-1.6 4.4,-1.6 z"
   style="fill:#bac7d6;;fill-opacity:1" /><path
   id="XMLID_1517_"
   fill="url(#XMLID_26_)"
   d="m 883.4,999.8 h 33.3 c 3.9,0 7.1,3.2 7.1,7.1 v 9 c 0,3.9 -3.2,7.1 -7.1,7.1 h -33.3 c -1.6,0 -3.2,-0.6 -4.4,-1.6 l -5.6,-4.5 c -3.5,-2.8 -3.5,-8.2 0,-11 l 5.6,-4.5 c 1.2,-1 2.8,-1.6 4.4,-1.6 z"
   style="fill:#bac7d6;;fill-opacity:1" /><path
   id="XMLID_1518_"
   fill="url(#XMLID_27_)"
   d="m 883.4,963.6 h 33.3 c 3.9,0 7.1,3.2 7.1,7.1 v 9 c 0,3.9 -3.2,7.1 -7.1,7.1 h -33.3 c -1.6,0 -3.2,-0.6 -4.4,-1.6 l -5.6,-4.5 c -3.5,-2.8 -3.5,-8.2 0,-11 l 5.6,-4.5 c 1.2,-1 2.8,-1.6 4.4,-1.6 z"
   style="fill:#bac7d6;;fill-opacity:1" /><path
   id="XMLID_1538_"
   fill="url(#XMLID_45_)"
   d="m 877.1,898.9 h 40.3 c 4.4,0 8,3.6 8,8 v 40.3 c 0,7.2 -8.6,10.7 -13.7,5.7 l -40.3,-40.3 c -5,-5 -1.4,-13.7 5.7,-13.7 z"
   style="fill:#bac7d6;;fill-opacity:1" /><path
   id="XMLID_1528_"
   fill="url(#XMLID_37_)"
   d="M 1089.1,904.8 V 938 c 0,3.9 3.2,7.1 7.1,7.1 h 9 c 3.9,0 7.1,-3.2 7.1,-7.1 v -33.3 c 0,-1.6 -0.6,-3.2 -1.6,-4.4 l -4.5,-5.6 c -2.8,-3.5 -8.2,-3.5 -11,0 l -4.5,5.6 c -1.1,1.3 -1.6,2.9 -1.6,4.5 z"
   style="fill:#bac7d6;;fill-opacity:1" /><path
   id="XMLID_1519_"
   fill="url(#XMLID_28_)"
   d="M 1161.5,1265.3 V 1232 c 0,-3.9 3.2,-7.1 7.1,-7.1 h 9 c 3.9,0 7.1,3.2 7.1,7.1 v 33.3 c 0,1.6 -0.6,3.2 -1.6,4.4 l -4.5,5.6 c -2.8,3.5 -8.2,3.5 -11,0 l -4.5,-5.6 c -1,-1.2 -1.6,-2.8 -1.6,-4.4 z"
   style="fill:#bac7d6;;fill-opacity:1" /><path
   id="XMLID_1520_"
   fill="url(#XMLID_29_)"
   d="M 1125.3,1265.3 V 1232 c 0,-3.9 3.2,-7.1 7.1,-7.1 h 9 c 3.9,0 7.1,3.2 7.1,7.1 v 33.3 c 0,1.6 -0.6,3.2 -1.6,4.4 l -4.5,5.6 c -2.8,3.5 -8.2,3.5 -11,0 l -4.5,-5.6 c -1.1,-1.2 -1.6,-2.8 -1.6,-4.4 z"
   style="fill:#bac7d6;;fill-opacity:1" /><path
   id="XMLID_1522_"
   fill="url(#XMLID_31_)"
   d="M 1052.8,1265.3 V 1232 c 0,-3.9 3.2,-7.1 7.1,-7.1 h 9 c 3.9,0 7.1,3.2 7.1,7.1 v 33.3 c 0,1.6 -0.6,3.2 -1.6,4.4 l -4.5,5.6 c -2.8,3.5 -8.2,3.5 -11,0 l -4.5,-5.6 c -1,-1.2 -1.6,-2.8 -1.6,-4.4 z"
   style="fill:#bac7d6;;fill-opacity:1" /><path
   id="XMLID_1523_"
   fill="url(#XMLID_32_)"
   d="M 1016.6,1265.3 V 1232 c 0,-3.9 3.2,-7.1 7.1,-7.1 h 9 c 3.9,0 7.1,3.2 7.1,7.1 v 33.3 c 0,1.6 -0.6,3.2 -1.6,4.4 l -4.5,5.6 c -2.8,3.5 -8.2,3.5 -11,0 l -4.5,-5.6 c -1,-1.2 -1.6,-2.8 -1.6,-4.4 z"
   style="fill:#bac7d6;;fill-opacity:1" /><path
   id="XMLID_1524_"
   fill="url(#XMLID_33_)"
   d="M 980.4,1265.3 V 1232 c 0,-3.9 3.2,-7.1 7.1,-7.1 h 9 c 3.9,0 7.1,3.2 7.1,7.1 v 33.3 c 0,1.6 -0.6,3.2 -1.6,4.4 l -4.5,5.6 c -2.8,3.5 -8.2,3.5 -11,0 l -4.5,-5.6 c -1.1,-1.2 -1.6,-2.8 -1.6,-4.4 z"
   style="fill:#bac7d6;;fill-opacity:1" /><path
   id="XMLID_1525_"
   fill="url(#XMLID_34_)"
   d="M 944.2,1265.3 V 1232 c 0,-3.9 3.2,-7.1 7.1,-7.1 h 9 c 3.9,0 7.1,3.2 7.1,7.1 v 33.3 c 0,1.6 -0.6,3.2 -1.6,4.4 l -4.5,5.6 c -2.8,3.5 -8.2,3.5 -11,0 l -4.5,-5.6 c -1.1,-1.2 -1.6,-2.8 -1.6,-4.4 z"
   style="fill:#bac7d6;;fill-opacity:1" /><path
   id="XMLID_1521_"
   fill="url(#XMLID_30_)"
   d="M 1089.1,1265.3 V 1232 c 0,-3.9 3.2,-7.1 7.1,-7.1 h 9 c 3.9,0 7.1,3.2 7.1,7.1 v 33.3 c 0,1.6 -0.6,3.2 -1.6,4.4 l -4.5,5.6 c -2.8,3.5 -8.2,3.5 -11,0 l -4.5,-5.6 c -1.1,-1.2 -1.6,-2.8 -1.6,-4.4 z"
   style="fill:#bac7d6;;fill-opacity:1" /><path
   id="XMLID_1509_"
   fill="url(#XMLID_18_)"
   d="m 1243.9,1131.6 h -33.3 c -3.9,0 -7.1,-3.2 -7.1,-7.1 v -9 c 0,-3.9 3.2,-7.1 7.1,-7.1 h 33.3 c 1.6,0 3.2,0.6 4.4,1.6 l 5.6,4.5 c 3.5,2.8 3.5,8.2 0,11 l -5.6,4.5 c -1.2,1.1 -2.8,1.6 -4.4,1.6 z"
   style="fill:#bac7d6;;fill-opacity:1" /><path
   id="XMLID_1512_"
   fill="url(#XMLID_21_)"
   d="m 883.4,1181 h 33.3 c 3.9,0 7.1,3.2 7.1,7.1 v 9 c 0,3.9 -3.2,7.1 -7.1,7.1 h -33.3 c -1.6,0 -3.2,-0.6 -4.4,-1.6 l -5.6,-4.5 c -3.5,-2.8 -3.5,-8.2 0,-11 l 5.6,-4.5 c 1.2,-1.1 2.8,-1.6 4.4,-1.6 z"
   style="fill:#bac7d6;;fill-opacity:1" /><path
   id="XMLID_1513_"
   fill="url(#XMLID_22_)"
   d="m 883.4,1144.7 h 33.3 c 3.9,0 7.1,3.2 7.1,7.1 v 9 c 0,3.9 -3.2,7.1 -7.1,7.1 h -33.3 c -1.6,0 -3.2,-0.6 -4.4,-1.6 l -5.6,-4.5 c -3.5,-2.8 -3.5,-8.2 0,-11 l 5.6,-4.5 c 1.2,-1 2.8,-1.6 4.4,-1.6 z"
   style="fill:#bac7d6;;fill-opacity:1" /><path
   id="XMLID_1514_"
   fill="url(#XMLID_23_)"
   d="m 883.4,1108.5 h 33.3 c 3.9,0 7.1,3.2 7.1,7.1 v 9 c 0,3.9 -3.2,7.1 -7.1,7.1 h -33.3 c -1.6,0 -3.2,-0.6 -4.4,-1.6 l -5.6,-4.5 c -3.5,-2.8 -3.5,-8.2 0,-11 l 5.6,-4.5 c 1.2,-1 2.8,-1.6 4.4,-1.6 z"
   style="fill:#bac7d6;;fill-opacity:1" /><path
   id="XMLID_940_-3"
   style="fill:#bac7d6;fill-opacity:1"
   d="m 966.76636,450.21682 c 3.46354,-1.50351 6.26697,-4.43196 7.54118,-7.99457 1.66606,-4.34912 0.89412,-9.51804 -2.02273,-13.15878 -3.3834,-4.38433 -9.48786,-6.52539 -14.83205,-4.93752 -5.95126,1.63811 -10.28324,7.62715 -10.0864,13.77841 0.0281,5.65751 4.05113,10.96665 9.4,12.71246 3.33333,-0.13333 6.66667,-0.26667 10,-0.4 z m -8.2,-9.9 c -1.74154,-1.51862 -1.53587,-4.53113 0.31418,-5.87068 0.46492,-0.8745 2.27336,-0.35864 2.15797,-1.29353 -0.0907,-1.51193 -0.18143,-3.02386 -0.27215,-4.53579 0.1,1.66667 0.2,3.33333 0.3,5 2.41798,-0.18876 4.60666,2.26545 4.02656,4.64531 -0.37353,2.1784 -2.87003,3.79147 -4.97968,2.9209 -0.5656,-0.18415 -1.09561,-0.47823 -1.54688,-0.86621 z" /><path
   id="XMLID_940_-3-3"
   style="fill:#bac7d6;fill-opacity:1"
   d="m 1029.6664,450.07523 c 3.4636,-1.50351 6.267,-4.43196 7.5412,-7.99457 1.6661,-4.34912 0.8941,-9.51804 -2.0227,-13.15878 -3.3834,-4.38433 -9.4879,-6.52539 -14.8321,-4.93752 -5.9512,1.63811 -10.2832,7.62715 -10.0864,13.77841 0.028,5.65751 4.0512,10.96665 9.4,12.71246 3.3334,-0.13333 6.6667,-0.26667 10,-0.4 z m -8.2,-9.9 c -1.7415,-1.51862 -1.5358,-4.53113 0.3142,-5.87068 0.4649,-0.8745 2.2734,-0.35864 2.158,-1.29353 -0.091,-1.51193 -0.1814,-3.02386 -0.2722,-4.53579 0.1,1.66667 0.2,3.33333 0.3,5 2.418,-0.18876 4.6067,2.26545 4.0266,4.64531 -0.3735,2.1784 -2.87,3.79147 -4.9797,2.9209 -0.5656,-0.18415 -1.0956,-0.47823 -1.5469,-0.86621 z" /><path
   id="XMLID_940_-3-3-3"
   style="fill:#bac7d6;fill-opacity:1"
   d="m 1156.2902,371.72105 c 3.4636,-1.50351 6.267,-4.43196 7.5412,-7.99457 1.6661,-4.34912 0.8941,-9.51804 -2.0227,-13.15878 -3.3834,-4.38433 -9.4879,-6.52539 -14.8321,-4.93752 -5.9512,1.63811 -10.2832,7.62715 -10.0864,13.77841 0.028,5.65751 4.0512,10.96665 9.4,12.71246 3.3334,-0.13333 6.6667,-0.26667 10,-0.4 z m -8.2,-9.9 c -1.7415,-1.51862 -1.5358,-4.53113 0.3142,-5.87068 0.4649,-0.8745 2.2734,-0.35864 2.158,-1.29353 -0.091,-1.51193 -0.1814,-3.02386 -0.2722,-4.53579 0.1,1.66667 0.2,3.33333 0.3,5 2.418,-0.18876 4.6067,2.26545 4.0266,4.64531 -0.3735,2.1784 -2.87,3.79147 -4.9797,2.9209 -0.5656,-0.18415 -1.0956,-0.47823 -1.5469,-0.86621 z" /><path
   id="XMLID_940_-3-3-3-1"
   style="fill:#bac7d6;fill-opacity:1"
   d="m 1273.4334,365.39333 c 3.3341,1.77222 7.3714,2.1402 10.9518,0.91697 4.4398,-1.40677 8.0016,-5.23131 9.0318,-9.7812 1.321,-5.37817 -0.808,-11.48686 -5.3799,-14.67742 -4.9894,-3.63402 -12.373,-3.29055 -17.0615,0.69618 -4.4076,3.54706 -6.0533,10.00189 -4.086,15.27324 2.1813,2.52413 4.3626,5.04818 6.5438,7.57223 z m 2.6339,-12.58223 c 0.1027,-2.30835 2.5871,-4.02454 4.7875,-3.41223 0.9737,-0.18128 1.6971,1.55467 2.3564,0.88188 1.1258,-1.01325 2.2521,-2.02603 3.378,-3.03912 -1.2412,1.11671 -2.4825,2.23341 -3.7238,3.35011 1.6543,1.77362 1.0985,5.01471 -1.1243,6.04386 -1.9366,1.06521 -4.7538,0.11768 -5.3874,-2.07487 -0.2084,-0.55712 -0.3086,-1.1549 -0.2864,-1.74963 z" /><path
   id="XMLID_940_-3-3-3-1-6"
   style="fill:#bac7d6;fill-opacity:1"
   d="m 1349.151,347.58321 c -1.5008,-3.46475 -4.4271,-6.27039 -7.9887,-7.54732 -4.3479,-1.66943 -9.5174,-0.90139 -13.1604,2.01262 -4.3869,3.38004 -6.5326,9.4829 -4.9489,14.82831 1.6336,5.95245 7.6193,10.28904 13.7707,10.09695 5.6576,-0.0237 10.9698,-4.04279 12.7197,-9.39025 -0.1308,-3.33351 -0.2616,-6.66691 -0.3924,-10.00031 z m -9.9062,8.19242 c -1.52,1.74033 -4.5323,1.53232 -5.8705,-0.3187 -0.8741,-0.46557 -0.3569,-2.27368 -1.2919,-2.15899 -1.512,0.0898 -3.0239,0.17908 -4.5359,0.26872 1.6667,-0.0987 3.3334,-0.19744 5.0002,-0.29617 -0.1869,-2.41814 2.269,-4.60496 4.6484,-4.02304 2.1781,0.37517 3.7892,2.87291 2.9171,4.98194 -0.1846,0.56546 -0.4791,1.09523 -0.8674,1.54624 z" /><path
   id="XMLID_940_-3-3-3-1-6-2"
   style="fill:#bac7d6;fill-opacity:1"
   d="m 562.2655,1238.9016 c -1.5008,-3.4648 -4.4271,-6.2704 -7.9887,-7.5474 -4.3479,-1.6694 -9.5174,-0.9014 -13.1604,2.0127 -4.38689,3.38 -6.53259,9.4828 -4.94889,14.8283 1.6336,5.9524 7.61929,10.289 13.77069,10.0969 5.6576,-0.024 10.9698,-4.0428 12.7197,-9.3902 -0.1308,-3.3336 -0.2616,-6.667 -0.3924,-10.0003 z m -9.9062,8.1924 c -1.52,1.7403 -4.5323,1.5323 -5.8705,-0.3187 -0.8741,-0.4656 -0.3569,-2.2737 -1.2919,-2.159 -1.512,0.09 -3.0239,0.1791 -4.5359,0.2687 1.6667,-0.099 3.3334,-0.1974 5.0002,-0.2962 -0.1869,-2.4181 2.269,-4.6049 4.6484,-4.023 2.1781,0.3752 3.7892,2.8729 2.9171,4.9819 -0.1846,0.5655 -0.4791,1.0953 -0.8674,1.5463 z" /><path
   id="XMLID_940_-3-3-3-1-6-2-5"
   style="fill:#bac7d6;fill-opacity:1"
   d="m 489.18238,1249.6854 c 1.46223,3.4812 4.35719,6.3191 7.90439,7.6356 4.32909,1.7176 9.5068,1.0071 13.18194,-1.8664 4.42415,-3.3311 6.63749,-9.4097 5.11325,-14.7724 -1.5674,-5.9702 -7.50456,-10.373 -13.65771,-10.2492 -5.65752,-0.039 -11.01402,3.9207 -12.8232,9.2483 0.0938,3.3349 0.18755,6.6695 0.28133,10.0041 z m 9.99656,-8.0819 c 1.53923,-1.7233 4.54904,-1.4819 5.8666,0.3839 0.86888,0.4752 0.33163,2.2775 1.26785,2.1732 1.5129,-0.073 3.0257,-0.1455 4.5386,-0.2183 -1.6677,0.08 -3.33539,0.1603 -5.00318,0.2406 0.16003,2.42 -2.32,4.5794 -4.69279,3.9711 -2.1738,-0.3993 -3.75706,-2.9148 -2.8616,-5.0139 0.19087,-0.5635 0.49124,-1.09 0.88452,-1.5366 z" /><path
   id="XMLID_940_-3-3-3-1-6-2-5-2"
   style="fill:#bac7d6;fill-opacity:1"
   d="m 436.35302,1382.231 c 3.52549,-1.3521 6.45302,-4.1564 7.88035,-7.6605 1.85282,-4.273 1.30539,-9.4705 -1.45113,-13.2341 -3.19035,-4.5267 -9.19637,-6.93 -14.60439,-5.5751 -6.01649,1.3789 -10.60376,7.1748 -10.67347,13.3288 -0.21666,5.6535 3.57256,11.1318 8.8407,13.1076 3.33614,0.011 6.67209,0.022 10.00794,0.033 z m -7.76365,-10.2457 c -1.67407,-1.5927 -1.33814,-4.5934 0.5681,-5.8517 0.50236,-0.8535 2.28682,-0.2598 2.212,-1.1989 -0.0256,-1.5144 -0.0503,-3.0287 -0.0755,-4.5432 0.028,1.6694 0.0554,3.3388 0.0833,5.0083 2.42387,-0.084 4.50423,2.4628 3.82165,4.8153 -0.4675,2.1602 -3.03146,3.6636 -5.10146,2.7026 -0.55714,-0.2085 -1.07393,-0.5253 -1.50801,-0.9324 z" /><path
   id="XMLID_940_-3-3-3-1-6-2-5-2-7"
   style="fill:#bac7d6;fill-opacity:1"
   d="m 292.20357,1344.7417 c 3.48472,-1.454 6.32951,-4.3422 7.6544,-7.8863 1.72786,-4.325 1.02962,-9.5043 -1.8351,-13.1863 -3.32056,-4.432 -9.39388,-6.6598 -14.76024,-5.1483 -5.97389,1.5532 -10.39078,7.4799 -10.28162,13.6333 -0.0523,5.6574 3.89456,11.0233 9.21788,12.8451 3.3352,-0.081 6.66992,-0.1715 10.00468,-0.2573 z m -8.05812,-10.0157 c -1.71964,-1.5433 -1.47106,-4.5526 0.39781,-5.8657 0.47734,-0.8678 2.27831,-0.3263 2.17622,-1.2627 -0.0696,-1.5131 -0.1383,-3.026 -0.2075,-4.5391 0.0765,1.6679 0.15243,3.3357 0.22876,5.0038 2.42041,-0.154 4.57389,2.3308 3.95997,4.7021 -0.40453,2.1728 -2.92372,3.7502 -5.02077,2.8497 -0.56296,-0.1922 -1.08874,-0.4938 -1.53447,-0.8881 z" /><path
   id="XMLID_940_-3-3-3-1-6-2-5-2-7-9"
   style="fill:#bac7d6;fill-opacity:1"
   d="m 286.55046,1264.0277 c -3.77529,0.067 -7.48465,1.7021 -10.02307,4.5078 -3.20096,3.3831 -4.46185,8.4549 -3.15675,12.9338 1.45219,5.3442 6.276,9.6545 11.82155,10.2284 6.12564,0.7592 12.41676,-3.1211 14.5844,-8.8811 2.13479,-5.2394 0.44482,-11.6826 -3.83154,-15.339 -3.13169,-1.1501 -6.26319,-2.3 -9.39459,-3.4499 z m 3.79687,12.2813 c 1.02935,2.0687 -0.31139,4.7742 -2.53278,5.3057 -0.76368,0.6305 -2.23803,-0.537 -2.48847,0.3711 -0.49325,1.4322 -0.9873,2.8638 -1.48092,4.2958 0.54391,-1.5786 1.08838,-3.1569 1.63251,-4.7355 -2.30672,-0.7491 -3.39203,-3.8532 -1.94693,-5.8311 1.17727,-1.8705 4.10056,-2.4077 5.71778,-0.7974 0.45241,0.3863 0.82991,0.8605 1.09881,1.3914 z" /><path
   id="XMLID_915_-9"
   fill="url(#XMLID_79_)"
   d="m 892.7,883 v -23.7 h -9.4 -10 -9.3 V 888 h 28.7 z M 874,869.3 h 8.7 V 878 H 874 Z"
   style="fill:#bac7d6;fill-opacity:1"
   sodipodi:nodetypes="ccccccccccccc" /><path
   id="XMLID_915_-9-6"
   fill="url(#XMLID_79_)"
   d="M 930.4,883 V 859.3 H 921 911 901.7 V 888 h 28.7 z m -18.7,-13.7 h 8.7 v 8.7 h -8.7 z"
   style="fill:#bac7d6;fill-opacity:1"
   sodipodi:nodetypes="ccccccccccccc" /><path
   id="XMLID_915_-9-6-8"
   fill="url(#XMLID_79_)"
   d="m 1350.8,446.8 v -23.7 h -9.4 -10 -9.3 v 28.7 h 28.7 z m -18.7,-13.7 h 8.7 v 8.7 h -8.7 z"
   style="fill:#bac7d6;fill-opacity:1"
   sodipodi:nodetypes="ccccccccccccc" /><path
   id="XMLID_915_-9-6-8-7"
   fill="url(#XMLID_79_)"
   d="m 1350.8,403.3 v -23.7 h -9.4 -10 -9.3 v 28.7 h 28.7 z m -18.7,-13.7 h 8.7 v 8.7 h -8.7 z"
   style="fill:#bac7d6;fill-opacity:1"
   sodipodi:nodetypes="ccccccccccccc" /><path
   id="XMLID_937_-9"
   style="fill:#bac7d6;fill-opacity:1;stroke-width:0.518915"
   d="m 1373.5358,1078.9051 v 9.9 h 26.5504 v -9.9 z"
   sodipodi:nodetypes="ccccc" /><path
   id="XMLID_937_-9-1"
   style="fill:#bac7d6;fill-opacity:1;stroke-width:0.518915"
   d="m 1373.706,1115.0591 v 9.9 h 26.5504 v -9.9 z"
   sodipodi:nodetypes="ccccc" /><path
   id="XMLID_937_-9-1-3"
   style="fill:#bac7d6;fill-opacity:1;stroke-width:0.518915"
   d="m 1373.706,1151.2068 v 9.9 h 26.5504 v -9.9 z"
   sodipodi:nodetypes="ccccc" /><path
   id="XMLID_937_-9-1-3-2"
   style="fill:#bac7d6;fill-opacity:1;stroke-width:0.518915"
   d="m 1383.3379,1293.496 -0.095,14.1854 15.6942,15.7146 0.1927,-14.09 z"
   sodipodi:nodetypes="ccccc" /><path
   id="XMLID_937_-9-1-3-2-9"
   style="fill:#bac7d6;fill-opacity:1;stroke-width:0.518915"
   d="m 1384.2129,959.7309 -0.095,-14.1854 15.6942,-15.7146 0.1927,14.09 z"
   sodipodi:nodetypes="ccccc" /><path
   id="XMLID_937_-9-1-3-2-9-6"
   style="fill:#bac7d6;fill-opacity:1;stroke-width:0.518915"
   d="m 1384.0303,925.8855 -0.095,-14.18537 15.6942,-15.7146 0.1927,14.09 z"
   sodipodi:nodetypes="ccccc" /><path
   id="XMLID_937_-9-1-3-2-9-6-6"
   style="fill:#bac7d6;fill-opacity:1;stroke-width:0.518915"
   d="m 1384.5083,886.5395 -0.095,-14.18535 15.6942,-15.7146 0.1927,14.09 z"
   sodipodi:nodetypes="ccccc" /><path
   id="XMLID_937_-9-1-3-2-9-6-6-2"
   style="fill:#bac7d6;fill-opacity:1;stroke-width:0.518915"
   d="m 1383.8418,726.34798 -0.095,-14.18535 15.6942,-15.7146 0.1927,14.09 z"
   sodipodi:nodetypes="ccccc" /><path
   id="XMLID_940_-3-3-3-1-6-4"
   style="fill:#bac7d6;fill-opacity:1"
   d="m 1411.6991,483.38366 c -1.5008,-3.46475 -4.4271,-6.27039 -7.9887,-7.54732 -4.3479,-1.66943 -9.5174,-0.90139 -13.1604,2.01262 -4.3869,3.38004 -6.5326,9.4829 -4.9489,14.82831 1.6336,5.95245 7.6193,10.28904 13.7707,10.09695 5.6576,-0.0237 10.9698,-4.04279 12.7197,-9.39025 -0.1308,-3.33351 -0.2616,-6.66691 -0.3924,-10.00031 z m -9.9062,8.19242 c -1.52,1.74033 -4.5323,1.53232 -5.8705,-0.3187 -0.8741,-0.46557 -0.3569,-2.27368 -1.2919,-2.15899 -1.512,0.0898 -3.0239,0.17908 -4.5359,0.26872 1.6667,-0.0987 3.3334,-0.19744 5.0002,-0.29617 -0.1869,-2.41814 2.269,-4.60496 4.6484,-4.02304 2.1781,0.37517 3.7892,2.87291 2.9171,4.98194 -0.1846,0.56546 -0.4791,1.09523 -0.8674,1.54624 z" /><path
   id="XMLID_940_-3-3-3-1-6-4-4"
   style="fill:#bac7d6;fill-opacity:1"
   d="m 1412.2462,541.48126 c -1.5008,-3.46475 -4.4271,-6.27039 -7.9887,-7.54732 -4.3479,-1.66943 -9.5174,-0.90139 -13.1604,2.01262 -4.3869,3.38004 -6.5326,9.4829 -4.9489,14.82831 1.6336,5.95245 7.6193,10.28904 13.7707,10.09695 5.6576,-0.0237 10.9698,-4.04279 12.7197,-9.39025 -0.1308,-3.33351 -0.2616,-6.66691 -0.3924,-10.00031 z m -9.9062,8.19242 c -1.52,1.74033 -4.5323,1.53232 -5.8705,-0.3187 -0.8741,-0.46557 -0.3569,-2.27368 -1.2919,-2.15899 -1.512,0.0898 -3.0239,0.17908 -4.5359,0.26872 1.6667,-0.0987 3.3334,-0.19744 5.0002,-0.29617 -0.1869,-2.41814 2.269,-4.60496 4.6484,-4.02304 2.1781,0.37517 3.7892,2.87291 2.9171,4.98194 -0.1846,0.56546 -0.4791,1.09523 -0.8674,1.54624 z" /><path
   id="XMLID_937_-9-1-3-2-9-6-6-2-3"
   style="fill:#bac7d6;fill-opacity:1;stroke-width:0.518915"
   d="m 1384.3984,95.73511 -0.095,-14.18535 15.6942,-15.7146 0.1927,14.09 z"
   sodipodi:nodetypes="ccccc" /><path
   id="XMLID_937_-9-1-1"
   style="fill:#bac7d6;fill-opacity:1;stroke-width:0.518915"
   d="m 1373.4542,347.74406 v 9.9 h 26.5504 v -9.9 z"
   sodipodi:nodetypes="ccccc" /><path
   id="XMLID_937_-9-1-3-22"
   style="fill:#bac7d6;fill-opacity:1;stroke-width:0.518915"
   d="m 1373.4542,388.9452 v 9.9 h 26.5504 v -9.9 z"
   sodipodi:nodetypes="ccccc" /></g>
	</g>
</g>
</svg>
