<svg width="153.88" height="215.2" version="1.1" viewBox="0 0 144.26 201.75" xmlns="http://www.w3.org/2000/svg" xmlns:xlink="http://www.w3.org/1999/xlink"><title>W3 ORG Technologies and Blazons</title><g transform="translate(-184.54 -390.99)"><g transform="matrix(.3771 0 0 .36766 3.1239 374.77)" stroke-width="1.0667px" aria-label="CSS"><path d="m635.58 118.34q-5.4703 2.8384-11.405 4.2834-5.9348 1.445-12.386 1.445-19.249 0-30.5-10.734-11.25-10.786-11.25-29.21 0-18.475 11.25-29.21 11.25-10.786 30.5-10.786 6.4509 0 12.386 1.445 5.9348 1.445 11.405 4.2834v15.947q-5.5219-3.7673-10.889-5.5219t-11.302-1.7546q-10.631 0-16.721 6.8121-6.0896 6.8121-6.0896 18.785 0 11.921 6.0896 18.733 6.0896 6.8121 16.721 6.8121 5.9348 0 11.302-1.7546 5.3671-1.7546 10.889-5.5219z"/><path d="m707.78 47.944v16.308q-6.3476-2.8384-12.386-4.2834-6.038-1.445-11.405-1.445-7.1218 0-10.528 1.9611-3.4061 1.9611-3.4061 6.0896 0 3.0964 2.2707 4.851 2.3223 1.703 8.3603 2.9416l8.4635 1.703q12.85 2.5803 18.269 7.8443 5.4187 5.2639 5.4187 14.966 0 12.747-7.5862 18.991-7.5346 6.1928-23.068 6.1928-7.3282 0-14.708-1.3934-7.3798-1.3934-14.76-4.1286v-16.772q7.3798 3.9221 14.244 5.9348 6.9153 1.9611 13.315 1.9611 6.5025 0 9.9601-2.1675 3.4577-2.1675 3.4577-6.1928 0-3.6125-2.3739-5.5735-2.3223-1.9611-9.3408-3.5093l-7.6894-1.703q-11.56-2.4771-16.927-7.8959-5.3155-5.4187-5.3155-14.605 0-11.508 7.4314-17.701 7.4314-6.1928 21.365-6.1928 6.3476 0 13.057 0.98053 6.7089 0.92892 13.882 2.8384z"/><path d="m779.2 47.944v16.308q-6.3476-2.8384-12.386-4.2834-6.038-1.445-11.405-1.445-7.1218 0-10.528 1.9611-3.406 1.9611-3.406 6.0896 0 3.0964 2.2707 4.851 2.3223 1.703 8.3603 2.9416l8.4635 1.703q12.85 2.5803 18.269 7.8443 5.4187 5.2639 5.4187 14.966 0 12.747-7.5862 18.991-7.5346 6.1928-23.068 6.1928-7.3282 0-14.708-1.3934-7.3798-1.3934-14.76-4.1286v-16.772q7.3798 3.9221 14.244 5.9348 6.9153 1.9611 13.315 1.9611 6.5025 0 9.9601-2.1675t3.4577-6.1928q0-3.6125-2.3739-5.5735-2.3223-1.9611-9.3409-3.5093l-7.6894-1.703q-11.56-2.4771-16.927-7.8959-5.3155-5.4187-5.3155-14.605 0-11.508 7.4314-17.701 7.4314-6.1928 21.365-6.1928 6.3476 0 13.057 0.98053 6.7089 0.92892 13.882 2.8384z"/></g><g transform="matrix(.39717 0 0 .39717 -19.312 187.79)" fill-rule="evenodd"><g fill="#0070bb"><path d="m693.2 616.96v8e-3l-179.95 0.375 33.977 360.88 146.87 40.932v0.4277l0.76563-0.2129 0.76562 0.2129v-0.4277l146.87-40.932 33.977-360.88-179.95-0.375v-8e-3l-1.6582 4e-3z"/><path d="m692.5 647.78v6e-3l-147.92 0.32032 27.928 307.43 120.72 34.871v0.3633l0.62891-0.1816 0.19921 0.057v-342.87h-0.19921l-1.3613-4e-3z"/></g><path d="m694.97 647.78v342.49l120.24-34.732 27.928-307.43-147.92-0.32032v-6e-3h-0.25391z" fill="#28aae1"/></g><g transform="matrix(.37235 0 0 .37235 3.1239 374.77)" fill="#fff" aria-label="3"><path d="m728.67 359.5q28.331 7.3174 42.966 25.517 14.822 18.012 14.822 45.968 0 41.653-31.896 63.417-31.896 21.577-93.062 21.577-21.577 0-43.341-3.5649-21.577-3.3772-42.778-10.319v-55.725q20.263 10.132 40.152 15.385 20.076 5.0659 39.401 5.0659 28.707 0 43.904-9.9441 15.385-9.9441 15.385-28.519 0-19.138-15.76-28.894-15.573-9.9441-46.156-9.9441h-28.894v-46.531h30.395q27.206 0 40.527-8.4431 13.321-8.6307 13.321-26.08 0-16.136-12.946-24.954-12.946-8.8184-36.587-8.8184-17.449 0-35.273 3.9401-17.824 3.9401-35.461 11.633v-52.91q21.389-6.004 42.403-9.006 21.014-3.002 41.277-3.002 54.599 0 81.617 18.012 27.206 17.824 27.206 53.848 0 24.579-12.946 40.339-12.946 15.573-38.275 21.952z" fill="#fff" stroke-width="1.0667px"/></g></g><g transform="translate(-184.54 -390.99)" display="none"><g transform="matrix(.3771 0 0 .36766 16.742 22.057)" stroke-width="1.0667px" aria-label="HTML"><path d="m72.314 43.933h19.869v29.364h29.313v-29.364h19.869v77.049h-19.869v-32.667h-29.313v32.667h-19.869z"/><path d="m151.69 43.933h71.011v15.018h-25.545v62.032h-19.869v-62.032h-25.597z"/><path d="m232.92 43.933h25.287l17.546 41.234 17.65-41.234h25.236v77.049h-18.785v-56.355l-17.753 41.544h-12.592l-17.753-41.544v56.355h-18.837z"/><path d="m338.19 43.933h19.869v62.032h34.886v15.018h-54.755z"/></g><g transform="matrix(.39717 0 0 .39717 16.742 22.057)" fill-rule="evenodd"><g transform="translate(-51.301 -454.16)" fill="#e44d26"><path d="m252.94 600.35v8e-3l-179.95 0.375 33.977 360.88 146.87 40.932v0.4277l0.76563-0.2129 0.76562 0.2129v-0.4277l146.87-40.932 33.977-360.88-179.95-0.375v-8e-3l-1.6582 4e-3z"/><path d="m252.24 631.17v6e-3l-147.92 0.32032 27.928 307.43 120.72 34.871v0.3633l0.62891-0.1816 0.19921 0.057v-342.87h-0.19921l-1.3613-4e-3z"/></g><path d="m203.41 177.01v342.49l120.24-34.732 27.928-307.43-147.92-0.32032v-6e-3h-0.25391z" fill="#f16529"/></g><g transform="matrix(.37235 0 0 .37235 16.742 22.057)" fill="#fff" aria-label="5"><path d="m122.47 227.88h179.56v53.098h-121.96v43.341q8.2555-2.2515 16.511-3.3772 8.4431-1.3134 17.449-1.3134 51.222 0 79.741 25.705 28.519 25.517 28.519 71.297 0 45.405-31.146 71.11-30.958 25.705-86.12 25.705-23.828 0-47.281-4.6906-23.265-4.503-46.343-13.884v-56.85q22.89 13.134 43.341 19.701 20.639 6.5669 38.838 6.5669 26.267 0 41.277-12.758 15.198-12.946 15.198-34.898 0-22.14-15.198-34.898-15.01-12.758-41.277-12.758-15.573 0-33.21 4.1277-17.637 3.9401-37.9 12.383z" fill="#fff" stroke-width="1.0667px"/></g><g transform="matrix(.39717 0 0 .39717 91.643 30.228)" display="inline" fill-rule="evenodd"><g transform="translate(1223.8 15.174)" fill="#fc0"><path d="m-152.02 131.01v8e-3l-179.95 0.375 33.977 360.88 146.87 40.932v0.4277l0.76563-0.2129 0.76562 0.2129v-0.4277l146.87-40.932 33.977-360.88-179.95-0.375v-8e-3l-1.6582 4e-3z"/><path d="m-152.71 161.84v6e-3l-147.92 0.32032 27.928 307.43 120.72 34.871v0.3633l0.62891-0.1816 0.19921 0.057v-342.87h-0.19921l-1.3613-4e-3z"/></g><path d="m1073.6 177.01v342.49l120.24-34.732 27.928-307.43-147.92-0.32032v-6e-3h-0.2539z" fill="#fd5"/></g><g transform="matrix(.37235 0 0 .37235 91.643 30.228)" display="inline" fill="#fff" aria-label="6"><path d="m1148.8 372.07q-18.95 0-28.519 12.383-9.3813 12.196-9.3813 36.774t9.3813 36.962q9.5688 12.196 28.519 12.196 19.138 0 28.519-12.196 9.5689-12.383 9.5689-36.962t-9.5689-36.774q-9.3812-12.383-28.519-12.383zm89.309-134.53v51.784q-17.824-8.4431-33.585-12.383-15.76-4.1278-30.77-4.1278-32.271 0-50.283 18.012-18.012 17.824-21.014 53.098 12.383-9.1936 26.83-13.697 14.447-4.6906 31.521-4.6906 42.966 0 69.234 25.142 26.455 25.142 26.455 65.856 0 45.03-29.457 72.236-29.457 27.018-78.99 27.018-54.599 0-84.619-36.774-29.832-36.962-29.832-104.69 0-69.421 34.898-109.01 35.086-39.776 96.064-39.776 19.325 0 37.525 3.002 18.2 3.002 36.024 9.006z" fill="#fff" stroke-width="1.0667px"/></g><g transform="matrix(.3771 0 0 .36766 91.643 30.228)" display="inline" stroke-width="1.0667px" aria-label="JS"><path d="m1075.4 45.518h19.869v69.566q0 14.398-7.8442 21.52-7.7927 7.1218-23.636 7.1218h-4.0253v-15.018h3.0964q6.1928 0 9.3408-3.4577 3.1997-3.4577 3.1997-10.167z"/><path d="m1168.5 47.943v16.308q-6.3476-2.8384-12.386-4.2834t-11.405-1.445q-7.1217 0-10.528 1.9611-3.406 1.9611-3.406 6.0896 0 3.0964 2.2707 4.851 2.3223 1.703 8.3603 2.9416l8.4635 1.703q12.85 2.5803 18.269 7.8443 5.4187 5.2639 5.4187 14.966 0 12.747-7.5862 18.991-7.5346 6.1928-23.068 6.1928-7.3282 0-14.708-1.3934-7.3798-1.3934-14.76-4.1286v-16.772q7.3798 3.9221 14.244 5.9348 6.9153 1.9611 13.314 1.9611 6.5025 0 9.9602-2.1675 3.4576-2.1675 3.4576-6.1928 0-3.6125-2.3739-5.5735-2.3223-1.9611-9.3408-3.5093l-7.6895-1.703q-11.56-2.4771-16.927-7.8959-5.3155-5.4187-5.3155-14.605 0-11.508 7.4314-17.701t21.365-6.1928q6.3477 0 13.057 0.98053 6.7089 0.92892 13.882 2.8384z"/></g></g></svg>
